<?xml version="1.0" encoding="utf-8"?>
<!-- Generator: Adobe Illustrator 16.0.3, SVG Export Plug-In . SVG Version: 6.00 Build 0)  -->
<!DOCTYPE svg PUBLIC "-//W3C//DTD SVG 1.1//EN" "http://www.w3.org/Graphics/SVG/1.1/DTD/svg11.dtd">
<svg version="1.1" id="Layer_1" xmlns="http://www.w3.org/2000/svg" xmlns:xlink="http://www.w3.org/1999/xlink" x="0px" y="0px"
	 width="60px" height="44px" viewBox="0 18 60 44" enable-background="new 0 18 60 44" xml:space="preserve">
<path fill="#FF0000" d="M56.578,26.496c-0.641-2.414-2.529-4.315-4.928-4.96c-4.347-1.172-21.778-1.172-21.778-1.172
	s-17.432,0-21.778,1.172c-2.399,0.646-4.288,2.546-4.929,4.96C2,30.871,2,40,2,40s0,9.128,1.165,13.504
	c0.641,2.414,2.53,4.315,4.928,4.961c4.347,1.173,21.778,1.173,21.778,1.173s17.432,0,21.779-1.173
	c2.398-0.646,4.287-2.547,4.928-4.961C57.743,49.128,57.743,40,57.743,40S57.743,30.871,56.578,26.496"/>
<path fill="#FFFFFF" d="M24.17,48.288L38.74,40L24.17,31.711V48.288z"/>
</svg>
