<?xml version="1.0" encoding="utf-8"?>
<!-- Generator: Adobe Illustrator 16.0.3, SVG Export Plug-In . SVG Version: 6.00 Build 0)  -->
<!DOCTYPE svg PUBLIC "-//W3C//DTD SVG 1.1 Basic//EN" "http://www.w3.org/Graphics/SVG/1.1/DTD/svg11-basic.dtd">
<svg version="1.1" baseProfile="basic" xmlns="http://www.w3.org/2000/svg" xmlns:xlink="http://www.w3.org/1999/xlink" x="0px"
	 y="0px" width="100px" height="100px" viewBox="0 0 100 100" xml:space="preserve">
	<path id="_x33_" d="M35.785,63.728c1.8,1.151,5.977,2.952,10.369,2.952c8.137,0,10.657-5.185,10.585-9.072
		c-0.072-6.553-5.977-9.361-12.097-9.361h-3.528v-4.752h3.528c4.608,0,10.441-2.376,10.441-7.921c0-3.744-2.376-7.057-8.209-7.057
		c-3.744,0-7.345,1.656-9.361,3.097l-1.656-4.608c2.448-1.8,7.201-3.601,12.241-3.601c9.217,0,13.393,5.473,13.393,11.161
		c0,4.824-2.88,8.929-8.641,11.017v0.144c5.761,1.152,10.44,5.473,10.44,12.025c0,7.488-5.832,14.041-17.065,14.041
		c-5.256,0-9.865-1.656-12.169-3.168L35.785,63.728z"/>
</svg>
