<?xml version="1.0" encoding="utf-8"?>
<!-- Generator: Adobe Illustrator 16.0.3, SVG Export Plug-In . SVG Version: 6.00 Build 0)  -->
<!DOCTYPE svg PUBLIC "-//W3C//DTD SVG 1.1 Basic//EN" "http://www.w3.org/Graphics/SVG/1.1/DTD/svg11-basic.dtd">
<svg version="1.1" baseProfile="basic" xmlns="http://www.w3.org/2000/svg" xmlns:xlink="http://www.w3.org/1999/xlink" x="0px"
	 y="0px" width="100px" height="100px" viewBox="0 0 100 100" xml:space="preserve">
	<path id="_x35_" d="M62.211,29.524H44.354l-1.8,12.025c1.08-0.144,2.088-0.288,3.816-0.288c3.6,0,7.2,0.792,10.081,2.521
		c3.672,2.088,6.696,6.121,6.696,12.025c0,9.145-7.272,15.985-17.425,15.985c-5.113,0-9.433-1.44-11.665-2.88l1.584-4.824
		c1.944,1.151,5.76,2.592,10.009,2.592c5.977,0,11.089-3.889,11.089-10.152c-0.072-6.049-4.104-10.37-13.465-10.37
		c-2.665,0-4.752,0.288-6.481,0.504l3.024-22.466h22.394V29.524z"/>
</svg>
