<?xml version="1.0" encoding="utf-8"?>
<!-- Generator: Adobe Illustrator 16.0.3, SVG Export Plug-In . SVG Version: 6.00 Build 0)  -->
<!DOCTYPE svg PUBLIC "-//W3C//DTD SVG 1.1 Basic//EN" "http://www.w3.org/Graphics/SVG/1.1/DTD/svg11-basic.dtd">
<svg version="1.1" baseProfile="basic" xmlns="http://www.w3.org/2000/svg" xmlns:xlink="http://www.w3.org/1999/xlink" x="0px"
	 y="0px" width="100px" height="100px" viewBox="0 0 100 100" xml:space="preserve">
	<path id="_x36_" d="M60.987,28.66c-1.296-0.072-2.952,0-4.752,0.288c-9.938,1.656-15.194,8.929-16.274,16.634h0.216
		c2.232-2.953,6.12-5.401,11.305-5.401c8.281,0,14.113,5.977,14.113,15.122c0,8.568-5.832,16.489-15.553,16.489
		c-10.009,0-16.562-7.776-16.562-19.946c0-9.216,3.312-16.489,7.92-21.097c3.889-3.816,9.073-6.192,14.978-6.913
		c1.872-0.288,3.456-0.36,4.608-0.36V28.66z M59.188,55.662c0-6.696-3.816-10.729-9.649-10.729c-3.816,0-7.344,2.376-9.073,5.761
		c-0.432,0.72-0.72,1.656-0.72,2.808c0.144,7.705,3.672,13.394,10.297,13.394C55.515,66.896,59.188,62.359,59.188,55.662z"/>
</svg>
