<?xml version="1.0" encoding="utf-8"?>
<!-- Generator: Adobe Illustrator 16.0.3, SVG Export Plug-In . SVG Version: 6.00 Build 0)  -->
<!DOCTYPE svg PUBLIC "-//W3C//DTD SVG 1.1 Basic//EN" "http://www.w3.org/Graphics/SVG/1.1/DTD/svg11-basic.dtd">
<svg version="1.1" baseProfile="basic" xmlns="http://www.w3.org/2000/svg" xmlns:xlink="http://www.w3.org/1999/xlink" x="0px"
	 y="0px" width="100px" height="100px" viewBox="0 0 100 100" xml:space="preserve">
	<path id="_x38_" d="M33.697,59.119c0-5.904,3.528-10.081,9.289-12.529l-0.072-0.216c-5.184-2.448-7.417-6.48-7.417-10.513
		c0-7.417,6.265-12.457,14.473-12.457c9.073,0,13.609,5.688,13.609,11.521c0,3.96-1.943,8.209-7.704,10.945v0.216
		c5.832,2.304,9.433,6.408,9.433,12.098c0,8.137-6.984,13.608-15.913,13.608C39.602,71.792,33.697,65.959,33.697,59.119z
		 M58.899,58.831c0-5.688-3.961-8.425-10.297-10.225c-5.472,1.584-8.424,5.185-8.424,9.649c-0.216,4.753,3.384,8.929,9.36,8.929
		C55.227,67.184,58.899,63.655,58.899,58.831z M41.474,35.429c0,4.681,3.528,7.201,8.929,8.641c4.032-1.368,7.129-4.249,7.129-8.497
		c0-3.744-2.232-7.632-7.921-7.632C44.354,27.94,41.474,31.396,41.474,35.429z"/>
</svg>
