<?xml version="1.0" encoding="utf-8"?>
<!-- Generator: Adobe Illustrator 16.0.3, SVG Export Plug-In . SVG Version: 6.00 Build 0)  -->
<!DOCTYPE svg PUBLIC "-//W3C//DTD SVG 1.1 Basic//EN" "http://www.w3.org/Graphics/SVG/1.1/DTD/svg11-basic.dtd">
<svg version="1.1" baseProfile="basic" xmlns="http://www.w3.org/2000/svg" xmlns:xlink="http://www.w3.org/1999/xlink" x="0px"
	 y="0px" width="100px" height="100px" viewBox="0 0 100 100" xml:space="preserve">
	<path id="_x39_" d="M37.945,66.535c1.368,0.145,2.952,0,5.112-0.215c3.672-0.505,7.129-2.018,9.793-4.537
		c3.097-2.809,5.328-6.912,6.192-12.457h-0.216c-2.592,3.168-6.337,5.041-11.017,5.041c-8.425,0-13.825-6.337-13.825-14.33
		c0-8.856,6.409-16.633,15.985-16.633s15.482,7.777,15.482,19.73c0,10.297-3.457,17.497-8.065,21.962
		c-3.6,3.528-8.568,5.688-13.609,6.264c-2.304,0.361-4.32,0.433-5.833,0.361V66.535z M40.25,39.605c0,5.833,3.528,9.937,9.001,9.937
		c4.249,0,7.56-2.088,9.216-4.896c0.36-0.576,0.576-1.296,0.576-2.304c0-7.993-2.952-14.113-9.577-14.113
		C44.066,28.229,40.25,32.98,40.25,39.605z"/>
</svg>
