<?xml version="1.0" encoding="utf-8"?>
<!-- Generator: Adobe Illustrator 16.0.3, SVG Export Plug-In . SVG Version: 6.00 Build 0)  -->
<!DOCTYPE svg PUBLIC "-//W3C//DTD SVG 1.1 Basic//EN" "http://www.w3.org/Graphics/SVG/1.1/DTD/svg11-basic.dtd">
<svg version="1.1" baseProfile="basic" xmlns="http://www.w3.org/2000/svg" xmlns:xlink="http://www.w3.org/1999/xlink" x="0px"
	 y="0px" width="100px" height="100px" viewBox="0 0 100 100" xml:space="preserve">
	<path id="divide" d="M37.116,52.623v-2.88h24.771v2.88H37.116z M46.958,42.782c0-1.584,1.056-2.688,2.592-2.688
		c1.489,0,2.497,1.104,2.497,2.688c0,1.488-0.96,2.64-2.544,2.64C47.965,45.422,46.958,44.271,46.958,42.782z M46.958,59.632
		c0-1.585,1.056-2.688,2.592-2.688c1.489,0,2.497,1.104,2.497,2.688c0,1.487-0.96,2.64-2.544,2.64
		C47.965,62.271,46.958,61.119,46.958,59.632z"/>
</svg>
