<?xml version="1.0" encoding="utf-8"?>
<!-- Generator: Adobe Illustrator 16.0.3, SVG Export Plug-In . SVG Version: 6.00 Build 0)  -->
<!DOCTYPE svg PUBLIC "-//W3C//DTD SVG 1.1//EN" "http://www.w3.org/Graphics/SVG/1.1/DTD/svg11.dtd">
<svg version="1.1"
	 id="svg8" xmlns:dc="http://purl.org/dc/elements/1.1/" xmlns:cc="http://creativecommons.org/ns#" xmlns:rdf="http://www.w3.org/1999/02/22-rdf-syntax-ns#" xmlns:svg="http://www.w3.org/2000/svg" xmlns:sodipodi="http://sodipodi.sourceforge.net/DTD/sodipodi-0.dtd" xmlns:inkscape="http://www.inkscape.org/namespaces/inkscape" sodipodi:docname="Azurey.svg" inkscape:version="0.92.1 r15371"
	 xmlns="http://www.w3.org/2000/svg" xmlns:xlink="http://www.w3.org/1999/xlink" x="0px" y="0px" width="28px" height="28px"
	 viewBox="-194.5 264.107 28 28" enable-background="new -194.5 264.107 28 28" xml:space="preserve">
<path id="path21" inkscape:connector-curvature="0" fill="#0089D6" d="M-181.546,287.792c3.597-0.635,6.568-1.161,6.603-1.168
	l0.062-0.014l-3.396-4.04c-1.868-2.222-3.396-4.048-3.396-4.059c0-0.021,3.507-9.678,3.527-9.712
	c0.006-0.012,2.393,4.109,5.785,9.988c3.175,5.505,5.794,10.042,5.818,10.085l0.044,0.077l-10.793-0.002l-10.794-0.001
	L-181.546,287.792z M-194.5,286.56c0-0.005,1.6-2.783,3.556-6.173l3.556-6.163l4.145-3.479c2.279-1.912,4.15-3.479,4.158-3.482
	c0.007-0.003-0.022,0.072-0.067,0.168c-0.044,0.095-2.069,4.438-4.5,9.652l-4.42,9.479l-3.214,0.004
	C-193.054,286.569-194.5,286.566-194.5,286.56z"/>
</svg>
