<?xml version="1.0" encoding="utf-8"?>
<!-- Generator: Adobe Illustrator 16.0.3, SVG Export Plug-In . SVG Version: 6.00 Build 0)  -->
<!DOCTYPE svg PUBLIC "-//W3C//DTD SVG 1.1//EN" "http://www.w3.org/Graphics/SVG/1.1/DTD/svg11.dtd">
<svg version="1.1" id="Layer_1" xmlns="http://www.w3.org/2000/svg" xmlns:xlink="http://www.w3.org/1999/xlink" x="0px" y="0px"
	 width="28px" height="28px" viewBox="0 0 28 28" enable-background="new 0 0 28 28" xml:space="preserve">
<rect x="5.283" y="8.626" fill="#FFFFFF" width="21.22" height="14.243"/>
<path d="M9.396,3.058C9.155,3.184,8.789,3.577,8.63,3.89C8.559,4.015,8.253,4.737,7.952,5.492L7.399,6.859L4.773,6.887
	C2.263,6.914,2.143,6.92,1.842,7.029C1.426,7.188,0.966,7.5,0.698,7.812c-0.29,0.334-0.574,0.936-0.651,1.373
	c-0.043,0.252-0.054,2.336-0.043,7.002l0.016,6.646l0.121,0.312c0.268,0.706,0.727,1.253,1.318,1.564
	c0.673,0.361-0.142,0.339,12.538,0.339c12.686,0,11.865,0.022,12.543-0.339c0.433-0.229,0.902-0.711,1.121-1.144
	c0.346-0.688,0.34-0.459,0.34-7.604c0-4.393-0.017-6.586-0.061-6.811c-0.076-0.41-0.366-1.018-0.645-1.34
	c-0.258-0.296-0.685-0.591-1.105-0.771c-0.29-0.126-0.334-0.126-2.943-0.153l-2.652-0.027l-0.553-1.367
	C19.4,3.9,19.335,3.774,19.023,3.419c-0.443-0.503-0.082-0.471-5.055-0.465C9.795,2.954,9.582,2.96,9.396,3.058z M25.199,10.345
	l0.017,0.7h-1.428h-1.423v-0.673c0-0.372,0.018-0.695,0.039-0.717c0.021-0.017,0.65-0.027,1.406-0.022l1.373,0.017L25.199,10.345z
	 M15.342,10.65c1.636,0.433,2.954,1.499,3.698,2.992c0.164,0.328,0.394,1.028,0.487,1.478c0.093,0.47,0.076,1.553-0.033,2.073
	c-0.629,2.986-3.424,4.923-6.4,4.436c-2.303-0.372-4.092-2.095-4.606-4.431c-0.109-0.509-0.109-1.68,0.005-2.193
	c0.492-2.248,2.145-3.917,4.354-4.403C13.488,10.459,14.707,10.486,15.342,10.65z"/>
<path d="M13.258,12.543c-1.723,0.399-2.872,1.827-2.872,3.556c0,0.881,0.273,1.646,0.821,2.314c0.454,0.563,1.23,1.045,1.969,1.225
	c0.389,0.094,1.253,0.094,1.641,0c1.341-0.328,2.402-1.395,2.714-2.713c0.132-0.563,0.087-1.455-0.104-1.985
	c-0.508-1.45-1.777-2.396-3.292-2.451C13.789,12.478,13.466,12.494,13.258,12.543z"/>
</svg>
