<?xml version="1.0" encoding="utf-8"?>
<!-- Generator: Adobe Illustrator 16.0.3, SVG Export Plug-In . SVG Version: 6.00 Build 0)  -->
<!DOCTYPE svg PUBLIC "-//W3C//DTD SVG 1.1//EN" "http://www.w3.org/Graphics/SVG/1.1/DTD/svg11.dtd">
<svg version="1.1" id="Layer_1" xmlns="http://www.w3.org/2000/svg" xmlns:xlink="http://www.w3.org/1999/xlink" x="0px" y="0px"
	 width="28px" height="28px" viewBox="0 0 28 28" enable-background="new 0 0 28 28" xml:space="preserve">
<path fill="#004482" d="M26.441,8.061c0-0.343-0.121-0.724-0.316-1.063v0c-0.195-0.338-0.465-0.633-0.762-0.804L15.078,0.256
	c-0.593-0.342-1.563-0.342-2.155,0L2.637,6.195C2.044,6.538,1.559,7.377,1.559,8.061v11.877c0,0.294,0.102,0.613,0.251,0.912
	L1.8,20.857c0.012,0.021,0.029,0.044,0.042,0.064c0.014,0.025,0.02,0.053,0.034,0.077l0.012-0.007c0.2,0.313,0.491,0.662,0.75,0.813
	l10.286,5.938c0.593,0.342,1.563,0.342,2.156,0l10.286-5.938c0.241-0.141,0.534-0.504,0.742-0.817l0.019,0.011
	c0.024-0.042,0.035-0.088,0.058-0.131c0.017-0.027,0.039-0.06,0.054-0.085l-0.014-0.008c0.128-0.278,0.219-0.567,0.219-0.837V8.061z
	"/>
<path fill="#FFFFFF" d="M13.024,22.971c-4.947,0-8.972-4.024-8.972-8.971c0-4.947,4.025-8.972,8.972-8.972
	c3.192,0,5.65,0.956,7.252,3.721l-2.505,1.449c-0.801-1.383-1.9-2.277-4.799-2.277c-3.082,0-6.091,2.159-6.091,6.08
	c0,4.922,3.56,6.324,6.034,6.324c3.836,0,4.587-1.114,5.388-2.5l2.21,1.279C18.912,21.869,16.216,22.971,13.024,22.971z"/>
<polygon fill="#FFFFFF" points="18.896,15.183 21.264,15.183 21.264,17.549 23.631,17.549 23.631,15.183 26,15.183 26,12.816 
	23.631,12.816 23.631,10.449 21.264,10.449 21.264,12.816 18.896,12.816 "/>
<polygon fill="#FFFFFF" points="9.658,15.183 12.026,15.183 12.026,17.549 14.393,17.549 14.393,15.183 16.763,15.183 
	16.763,12.816 14.393,12.816 14.393,10.449 12.026,10.449 12.026,12.816 9.658,12.816 "/>
</svg>
