<?xml version="1.0" encoding="utf-8"?>
<!-- Generator: Adobe Illustrator 16.0.3, SVG Export Plug-In . SVG Version: 6.00 Build 0)  -->
<!DOCTYPE svg PUBLIC "-//W3C//DTD SVG 1.1//EN" "http://www.w3.org/Graphics/SVG/1.1/DTD/svg11.dtd">
<svg version="1.1" id="Livello_1" xmlns="http://www.w3.org/2000/svg" xmlns:xlink="http://www.w3.org/1999/xlink" x="0px" y="0px"
	 width="28px" height="28px" viewBox="-13.5 686.5 28 28" enable-background="new -13.5 686.5 28 28" xml:space="preserve">
<path fill="#185C37" d="M4.082,699.849l-11.069-1.953v14.434c0,0.659,0.534,1.194,1.193,1.194l0,0h19.102
	c0.659,0,1.194-0.535,1.194-1.194l0,0v-5.317L4.082,699.849z"/>
<path fill="#21A366" d="M4.082,687.477h-9.876c-0.659,0-1.193,0.534-1.193,1.193l0,0v5.318L4.082,700.5l5.86,1.953L14.5,700.5
	v-6.512L4.082,687.477z"/>
<path fill="#107C41" d="M-6.988,693.988H4.082v6.512H-6.988V693.988z"/>
<path opacity="0.1" enable-background="new    " d="M0.935,692.686h-7.922v16.279h7.922c0.658-0.002,1.192-0.535,1.194-1.193
	v-13.893C2.126,693.221,1.593,692.688,0.935,692.686z"/>
<path opacity="0.2" enable-background="new    " d="M0.284,693.338h-7.271v16.278h7.271c0.658-0.002,1.191-0.535,1.194-1.193V694.53
	C1.475,693.872,0.942,693.34,0.284,693.338z"/>
<path opacity="0.2" enable-background="new    " d="M0.284,693.338h-7.271v14.976h7.271c0.658-0.002,1.191-0.534,1.194-1.192V694.53
	C1.475,693.872,0.942,693.34,0.284,693.338z"/>
<path opacity="0.2" enable-background="new    " d="M-0.368,693.338h-6.62v14.976h6.62c0.659-0.002,1.191-0.534,1.194-1.192V694.53
	C0.823,693.872,0.291,693.34-0.368,693.338z"/>
<linearGradient id="SVGID_1_" gradientUnits="userSpaceOnUse" x1="-181.0771" y1="902.3682" x2="-150.5007" y2="955.3253" gradientTransform="matrix(0.3057 0 0 0.3057 44.3469 416.5421)">
	<stop  offset="0" style="stop-color:#18884F"/>
	<stop  offset="0.5" style="stop-color:#117E43"/>
	<stop  offset="1" style="stop-color:#0B6631"/>
</linearGradient>
<path fill="url(#SVGID_1_)" d="M-12.306,693.338h11.938c0.659,0,1.194,0.533,1.194,1.192v11.938c0,0.659-0.535,1.193-1.194,1.193
	h-11.938c-0.659,0-1.193-0.534-1.193-1.193V694.53C-13.5,693.871-12.965,693.338-12.306,693.338z"/>
<path fill="#FFFFFF" d="M-9.803,704.379l2.51-3.891l-2.3-3.869h1.851l1.255,2.475c0.116,0.235,0.195,0.41,0.238,0.524h0.017
	c0.083-0.188,0.169-0.368,0.261-0.546l1.342-2.451h1.699l-2.359,3.846l2.419,3.912h-1.808l-1.45-2.715
	c-0.068-0.116-0.125-0.237-0.173-0.363h-0.021c-0.042,0.123-0.099,0.241-0.168,0.352l-1.493,2.727H-9.803L-9.803,704.379z"/>
<path fill="#33C481" d="M13.307,687.477H4.082v6.512H14.5v-5.318C14.5,688.011,13.966,687.477,13.307,687.477L13.307,687.477z"/>
<path fill="#107C41" d="M4.082,700.5H14.5v6.512H4.082V700.5z"/>
</svg>
