<?xml version="1.0" encoding="utf-8"?>
<!-- Generator: Adobe Illustrator 16.0.3, SVG Export Plug-In . SVG Version: 6.00 Build 0)  -->
<!DOCTYPE svg PUBLIC "-//W3C//DTD SVG 1.1 Basic//EN" "http://www.w3.org/Graphics/SVG/1.1/DTD/svg11-basic.dtd">
<svg version="1.1" baseProfile="basic" xmlns="http://www.w3.org/2000/svg" xmlns:xlink="http://www.w3.org/1999/xlink" x="0px"
	 y="0px" width="28px" height="28px" viewBox="0 0 28 28" xml:space="preserve">
<g id="Layer_2">
	<path id="bg" fill="#FFFFFF" d="M2.734,0h22.531C26.775,0,28,1.225,28,2.734v22.531C28,26.775,26.775,28,25.266,28H2.734
		C1.224,28,0,26.775,0,25.266V2.734C0,1.225,1.225,0,2.734,0z"/>
</g>
<g id="Layer_1">
	<path fill="#FFA000" d="M4.543,21.981l3.198-20.48c0.046-0.254,0.239-0.454,0.489-0.494c0.25-0.039,0.5,0.08,0.625,0.301
		l3.306,6.178l1.317-2.516C13.579,4.778,13.784,4.659,14,4.659c0.221,0,0.421,0.12,0.523,0.313l8.938,17.008H4.543V21.981z"/>
	<path fill="#F57C00" d="M15.602,14.002L12.16,7.481L4.543,21.979L15.602,14.002z"/>
	<path fill="#FFCA28" d="M23.461,21.981L21.008,6.806c-0.034-0.215-0.193-0.397-0.403-0.466c-0.21-0.062-0.443-0.011-0.597,0.147
		L4.543,21.981l8.56,4.793c0.534,0.301,1.192,0.301,1.726,0L23.461,21.981L23.461,21.981z"/>
	<path fill="#FFFFFF" fill-opacity="0.2" d="M21.008,6.806c-0.034-0.215-0.193-0.397-0.403-0.466
		c-0.21-0.062-0.443-0.011-0.597,0.147l-3.066,3.078l-2.419-4.594C14.42,4.778,14.22,4.659,14,4.659
		c-0.215,0-0.421,0.12-0.523,0.313l-1.317,2.516L8.848,1.309c-0.119-0.222-0.369-0.341-0.62-0.301
		c-0.249,0.04-0.447,0.244-0.488,0.494l-3.198,20.48H4.539l0.004,0.011l0.085,0.04L20.002,6.641
		c0.154-0.159,0.387-0.216,0.597-0.147c0.216,0.068,0.368,0.244,0.409,0.465l2.431,15.033l0.022-0.012L21.008,6.806z M4.572,21.947
		L7.741,1.644c0.046-0.251,0.239-0.449,0.489-0.495c0.25-0.039,0.5,0.08,0.625,0.307l3.306,6.173l1.317-2.516
		C13.58,4.92,13.784,4.8,14,4.8c0.221,0,0.421,0.12,0.523,0.313l2.369,4.497L4.572,21.947L4.572,21.947z"/>
	<path opacity="0.2" fill="#A52714" d="M14.828,26.632c-0.533,0.301-1.192,0.301-1.726,0l-8.536-4.787l-0.023,0.137l8.56,4.793
		c0.534,0.301,1.192,0.301,1.727,0l8.631-4.793l-0.021-0.137L14.828,26.632z"/>
</g>
</svg>
