<?xml version="1.0" encoding="utf-8"?>
<!-- Generator: Adobe Illustrator 16.0.3, SVG Export Plug-In . SVG Version: 6.00 Build 0)  -->
<!DOCTYPE svg PUBLIC "-//W3C//DTD SVG 1.1//EN" "http://www.w3.org/Graphics/SVG/1.1/DTD/svg11.dtd">
<svg version="1.1" xmlns="http://www.w3.org/2000/svg" xmlns:xlink="http://www.w3.org/1999/xlink" x="0px" y="0px" width="28px"
	 height="28px" viewBox="0 0 28 28" enable-background="new 0 0 28 28" xml:space="preserve">
<g id="Layer_2">
	<polygon fill="#FFFFFF" points="1.456,22.033 17.245,22.356 17.245,18.798 9.835,16.135 1.683,18.798 	"/>
	<circle fill="#FFFFFF" cx="9.351" cy="9.333" r="3.298"/>
</g>
<g id="Layer_1">
	<polygon points="25.667,10.5 25.667,8.167 23.333,8.167 23.333,10.5 21,10.5 21,12.833 23.333,12.833 23.333,15.167 25.667,15.167 
		25.667,12.833 28,12.833 28,10.5 	"/>
	<path fill="#336699" d="M9.333,14C11.911,14,14,11.912,14,9.333c0-2.578-2.088-4.666-4.667-4.666S4.666,6.755,4.666,9.333
		C4.667,11.912,6.755,14,9.333,14z M9.333,7c1.283,0,2.333,1.051,2.333,2.333c0,1.283-1.05,2.334-2.333,2.334
		C8.049,11.667,7,10.616,7,9.333C7,8.051,8.05,7,9.333,7z"/>
	<path fill="#336699" d="M9.333,15.167C6.218,15.167,0,16.73,0,19.833v3.5h18.667v-3.5C18.667,16.729,12.448,15.167,9.333,15.167z
		 M16.333,21h-14v-1.154c0.233-0.841,3.85-2.346,7-2.346s6.767,1.505,7,2.333V21z"/>
	<path fill="#777777" d="M14.596,4.725c1.072,1.236,1.738,2.849,1.738,4.608c0,1.763-0.666,3.373-1.738,4.608
		c2.287-0.291,4.071-2.229,4.071-4.608S16.882,5.018,14.596,4.725z"/>
	<path fill="#777777" d="M19.284,16.135C20.323,17.104,21,18.316,21,19.833v3.5h2.333v-3.5
		C23.333,18.143,21.479,16.904,19.284,16.135z"/>
</g>
</svg>
