<svg version="1.1" id="Layer_1" xmlns="http://www.w3.org/2000/svg" xmlns:xlink="http://www.w3.org/1999/xlink" x="0px" y="0px"
	 width="35px" height="35px" viewBox="-17 495 35 35" enable-background="new -17 495 35 35" xml:space="preserve">
<path d="M-9.59,495h1.572v1.559h1.449V495h1.572v4.717h-1.572v-1.572h-1.436v1.572H-9.59 M-2.918,496.572h-1.388V495h4.354v1.572
	h-1.395v3.145h-1.572 M0.739,495h1.647l1.012,1.661L4.41,495h1.647v4.717H4.485v-2.338l-1.101,1.695l-1.101-1.695v2.338H0.739
	 M6.837,495h1.572v3.158h2.229v1.559H6.837"/>
<path fill="#E44D26" d="M-9.645,527.197l-2.256-25.32h24.801l-2.256,25.307L0.479,530"/>
<path fill="#F16529" d="M0.5,527.847v-23.892h10.138l-1.935,21.602"/>
<path fill="#EBEBEB" d="M-7.293,507.052H0.5v3.104h-4.389l0.287,3.179H0.5v3.097h-6.945 M-6.309,517.989h3.117l0.219,2.481
	L0.5,521.4v3.24l-6.371-1.777"/>
<path fill="#FFFFFF" d="M8.266,507.052H0.486v3.104h7.493 M7.698,513.334H0.486v3.104h3.828l-0.362,4.033l-3.466,0.93v3.227
	l6.357-1.764"/>
</svg>
