<?xml version="1.0" encoding="utf-8"?>
<!-- Generator: Adobe Illustrator 16.0.3, SVG Export Plug-In . SVG Version: 6.00 Build 0)  -->
<!DOCTYPE svg PUBLIC "-//W3C//DTD SVG 1.1//EN" "http://www.w3.org/Graphics/SVG/1.1/DTD/svg11.dtd">
<svg version="1.1" id="Layer_1" xmlns="http://www.w3.org/2000/svg" xmlns:xlink="http://www.w3.org/1999/xlink" x="0px" y="0px"
	 width="28px" height="28px" viewBox="-13.5 498.5 28 28" enable-background="new -13.5 498.5 28 28" xml:space="preserve">
<path fill="#330000" d="M-8.542,498.85H9.542c2.742,0,4.958,2.217,4.958,4.959v17.383c0,2.742-2.217,4.959-4.958,4.959H-8.542
	c-2.742,0-4.958-2.217-4.958-4.959v-17.383C-13.5,501.066-11.283,498.85-8.542,498.85z"/>
<path fill="#FF9A00" d="M0.033,515.184h-4.34l-0.887,2.741c-0.023,0.105-0.117,0.175-0.222,0.163h-2.193
	c-0.128,0-0.163-0.069-0.128-0.21l3.757-10.814c0.035-0.117,0.07-0.245,0.117-0.385c0.046-0.245,0.07-0.502,0.07-0.759
	c-0.012-0.059,0.035-0.116,0.093-0.128h0.035h2.987c0.093,0,0.14,0.034,0.151,0.093l4.258,12.017c0.035,0.129,0,0.187-0.116,0.187
	H1.177c-0.082,0.012-0.164-0.046-0.187-0.128L0.033,515.184L0.033,515.184z M-3.63,512.815h2.963
	c-0.07-0.245-0.164-0.537-0.269-0.841c-0.105-0.314-0.21-0.653-0.315-1.003c-0.117-0.361-0.222-0.712-0.338-1.073
	s-0.222-0.7-0.315-1.038c-0.093-0.327-0.175-0.63-0.257-0.91h-0.023c-0.105,0.502-0.233,1.003-0.397,1.505
	c-0.175,0.56-0.35,1.144-0.537,1.727C-3.28,511.776-3.455,512.325-3.63,512.815L-3.63,512.815z"/>
<path fill="#FF9A00" d="M6.333,507.833c-0.385,0.012-0.758-0.14-1.039-0.408c-0.268-0.291-0.408-0.677-0.396-1.073
	c-0.012-0.396,0.14-0.77,0.42-1.038c0.28-0.269,0.653-0.408,1.038-0.408c0.455,0,0.805,0.14,1.062,0.408
	c0.256,0.28,0.396,0.653,0.385,1.038c0.012,0.396-0.128,0.782-0.408,1.073C7.126,507.705,6.73,507.856,6.333,507.833L6.333,507.833z
	 M5.027,517.96v-8.983c0-0.116,0.046-0.163,0.151-0.163h2.31c0.105,0,0.152,0.059,0.152,0.163v8.983
	c0,0.128-0.047,0.187-0.152,0.187H5.202C5.085,518.146,5.027,518.077,5.027,517.96z"/>
</svg>
