<?xml version="1.0" encoding="utf-8"?>
<!-- Generator: Adobe Illustrator 16.0.3, SVG Export Plug-In . SVG Version: 6.00 Build 0)  -->
<!DOCTYPE svg PUBLIC "-//W3C//DTD SVG 1.1//EN" "http://www.w3.org/Graphics/SVG/1.1/DTD/svg11.dtd">
<svg version="1.1" id="Layer_1" xmlns="http://www.w3.org/2000/svg" xmlns:xlink="http://www.w3.org/1999/xlink" x="0px" y="0px"
	 width="28px" height="28px" viewBox="0 0 28 28" enable-background="new 0 0 28 28" xml:space="preserve">
<ellipse fill="#FFFFFF" cx="14" cy="14" rx="3.466" ry="3.16"/>
<ellipse fill="#FFFFFF" cx="14.862" cy="23.265" rx="2.698" ry="2.616"/>
<radialGradient id="SVGID_1_" cx="-182.5454" cy="57.835" r="3.2597" gradientTransform="matrix(4.5524 0 0 -4.4444 844.9579 270.843)" gradientUnits="userSpaceOnUse">
	<stop  offset="0" style="stop-color:#5FB8E7"/>
	<stop  offset="0.1084" style="stop-color:#54AFDF"/>
	<stop  offset="0.2706" style="stop-color:#389ECE"/>
	<stop  offset="0.4665" style="stop-color:#0083B3"/>
	<stop  offset="0.6868" style="stop-color:#006290"/>
	<stop  offset="0.7743" style="stop-color:#005581"/>
	<stop  offset="1" style="stop-color:#003557"/>
</radialGradient>
<path fill="url(#SVGID_1_)" d="M10.016,18.655c-1.292-0.964-2.178-2.458-2.348-4.284c-0.272-3.323,2.314-6.28,5.716-6.512
	c2.417-0.167,4.627,1.029,5.818,2.956c2.483-1.063,5.206-1.627,8.063-1.627l0,0c-0.442-1.195-1.054-2.359-1.836-3.388
	c-2.995,1.761-6.397-1.096-5.071-4.285c-1.326-0.664-2.756-1.095-4.184-1.329c-0.853,3.321-5.309,3.654-6.705,0.498
	C8.076,1.115,6.748,1.779,5.557,2.61C7.36,5.567,4.435,8.855,1.202,7.593C0.521,8.888,0.08,10.283-0.16,11.678
	c3.403,0.83,3.742,5.184,0.51,6.545c0.443,1.361,1.123,2.656,1.974,3.819c2.348-1.363,4.899,0.034,5.342,2.225
	C8.146,22.274,8.961,20.381,10.016,18.655z"/>
<path fill="#0273A5" d="M26.076,19.617l-1.53,0.896c-0.442,0.265-0.987,0.332-1.53,0.199c-0.511-0.132-0.954-0.465-1.225-0.896
	c-0.273-0.433-0.342-0.965-0.205-1.495c0.137-0.531,0.477-0.931,0.92-1.195l1.531-0.896l-0.852-1.429l-1.53,0.896
	c-0.852,0.499-1.464,1.261-1.7,2.225c-0.173,0.632-0.173,1.263,0,1.86l-2.621,1.294c-0.478-0.53-1.158-0.896-1.94-1.028
	l-0.271-2.126c1.734-0.532,2.994-2.092,2.994-3.953c0-2.292-1.905-4.153-4.254-4.153c-2.348,0-4.252,1.859-4.252,4.153
	c0,2.125,1.667,3.92,3.811,4.119l0.272,2.159c-1.191,0.466-2.008,1.596-2.008,2.923c0,1.728,1.463,3.156,3.232,3.156
	s3.232-1.429,3.232-3.156c0-0.197-0.033-0.431-0.068-0.629l2.688-1.33c0.478,0.532,1.124,0.896,1.839,1.063
	c0.306,0.065,0.612,0.133,0.953,0.133c0.646,0,1.293-0.166,1.871-0.498l1.531-0.896L26.076,19.617z M11.513,13.971
	c0-1.296,1.089-2.359,2.417-2.359s2.416,1.062,2.416,2.359c0,1.295-1.089,2.357-2.416,2.357
	C12.602,16.328,11.513,15.266,11.513,13.971z M14.95,25.166c-1.123,0-2.042-0.898-2.042-1.995c0-1.096,0.919-1.992,2.042-1.992
	c1.121,0,2.041,0.896,2.041,1.992C16.991,24.268,16.072,25.166,14.95,25.166z"/>
</svg>
