<?xml version="1.0" encoding="utf-8"?>
<!-- Generator: Adobe Illustrator 16.0.3, SVG Export Plug-In . SVG Version: 6.00 Build 0)  -->
<!DOCTYPE svg PUBLIC "-//W3C//DTD SVG 1.1//EN" "http://www.w3.org/Graphics/SVG/1.1/DTD/svg11.dtd">
<svg version="1.1"
	 id="svg64" xmlns:inkscape="http://www.inkscape.org/namespaces/inkscape" xmlns:sodipodi="http://sodipodi.sourceforge.net/DTD/sodipodi-0.dtd" xmlns:dc="http://purl.org/dc/elements/1.1/" xmlns:svg="http://www.w3.org/2000/svg" xmlns:rdf="http://www.w3.org/1999/02/22-rdf-syntax-ns#" xmlns:cc="http://creativecommons.org/ns#" inkscape:version="0.92.2 2405546, 2018-03-11" sodipodi:docname="Javascript-shield.svg"
	 xmlns="http://www.w3.org/2000/svg" xmlns:xlink="http://www.w3.org/1999/xlink" x="0px" y="0px" width="35px" height="35px"
	 viewBox="0 0 35 35" enable-background="new 0 0 35 35" xml:space="preserve">
<path id="path88" sodipodi:nodetypes="sccsssccsscsccccccccsscscssscsscccsccsscccc" inkscape:connector-curvature="0" fill="#EAEBEC" d="
	M12.87,33.625l-5.004-1.398l-0.064-0.369C7.743,31.529,5.572,7.29,5.572,6.969c0-0.115,1.268-0.129,12.429-0.129
	c11.779,0,12.427,0.007,12.427,0.146c-0.004,0.597-2.25,25.156-2.305,25.206c-0.07,0.061-9.757,2.76-10.08,2.808
	C17.95,35.014,15.624,34.395,12.87,33.625L12.87,33.625z M21.155,28.683c1.683-0.464,3.082-0.865,3.112-0.896
	c0.03-0.029,0.227-2.024,0.438-4.434c0.21-2.407,0.403-4.538,0.43-4.733l0.047-0.354H21.55h-3.633v1.543v1.543h1.961h1.963
	l-0.039,0.188c-0.021,0.103-0.105,0.99-0.187,1.971c-0.085,1.04-0.186,1.823-0.241,1.88c-0.054,0.055-0.853,0.299-1.776,0.545
	l-1.68,0.447v1.571c0,1.073,0.028,1.572,0.09,1.572C18.058,29.526,19.474,29.146,21.155,28.683L21.155,28.683z M25.136,16.327
	c-0.057-0.409-0.546-5.89-0.546-6.099c0-0.123-0.289-0.137-3.294-0.137h-3.295v1.614v1.613l1.479,0.057
	c0.815,0.031,1.672,0.079,1.904,0.104l0.424,0.05l0.103,1.263c0.058,0.694,0.125,1.402,0.15,1.575l0.047,0.313h1.538h1.537
	L25.136,16.327z"/>
<rect x="10.003" y="9.255" fill="#FFFFFF" width="16.053" height="23.33"/>
<path id="path80" sodipodi:nodetypes="ccsccccccscccccscscsccsssccscscssccccsccscsscccccccc" inkscape:connector-curvature="0" fill="#F0BE25" d="
	M12.832,33.542l-4.961-1.389L6.768,19.809C6.16,13.02,5.662,7.324,5.66,7.152L5.656,6.839h12.345h12.344l0.001,0.188
	c0.002,0.262-2.168,24.754-2.213,24.965c-0.032,0.152-0.63,0.337-5.063,1.563c-2.765,0.767-5.083,1.39-5.151,1.385
	C17.849,34.936,15.56,34.307,12.832,33.542L12.832,33.542z M21.159,28.742c1.715-0.478,3.143-0.906,3.173-0.954
	c0.028-0.049,0.233-2.146,0.454-4.658c0.222-2.515,0.42-4.638,0.441-4.717c0.039-0.14-0.254-0.146-5.287-0.146h-5.327l0.228-2.396
	c0.125-1.319,0.229-2.402,0.233-2.406c0.003-0.003,0.786-0.028,1.737-0.055c1.563-0.044,4.78,0.081,4.888,0.188
	c0.041,0.04,0.306,2.637,0.306,2.991c0,0.175,0.023,0.177,1.615,0.177h1.616l-0.038-0.354c-0.021-0.195-0.157-1.707-0.304-3.358
	l-0.266-3.001l-6.233-0.021c-4.958-0.018-6.233,0-6.233,0.083c-0.001,0.059-0.036,0.425-0.081,0.813
	c-0.106,0.943-0.92,10.062-0.92,10.313v0.196h5.305h5.303l-0.047,0.313c-0.026,0.172-0.108,1.044-0.183,1.938
	c-0.075,0.895-0.16,1.648-0.19,1.679c-0.077,0.074-3.197,0.908-3.392,0.905c-0.091-0.001-0.896-0.201-1.791-0.446L14.54,25.38
	l-0.061-0.7c-0.033-0.386-0.083-0.935-0.111-1.222l-0.051-0.521h-1.578h-1.578l0.004,0.313c0.006,0.586,0.386,4.525,0.44,4.58
	c0.064,0.065,6.125,1.769,6.313,1.775C17.985,29.606,19.444,29.219,21.159,28.742L21.159,28.742z"/>
<path id="path78" sodipodi:nodetypes="ccsccccccscccscccccccscsscccscscsscccccscsssscscccccs" inkscape:connector-curvature="0" fill="#E4A126" d="
	M12.832,33.542l-4.961-1.389L6.768,19.809C6.16,13.02,5.662,7.324,5.66,7.152L5.656,6.839h12.345h12.344l0.001,0.188
	c0.002,0.262-2.168,24.754-2.213,24.965c-0.032,0.152-0.63,0.337-5.063,1.563c-2.765,0.767-5.083,1.39-5.151,1.385
	C17.849,34.936,15.56,34.307,12.832,33.542L12.832,33.542z M22.082,31.685c2.182-0.602,4.008-1.137,4.058-1.188
	c0.078-0.079,1.963-20.733,1.955-21.424l-0.002-0.229h-5.046h-5.046v0.583v0.585h-2.919c-2.28,0-2.92,0.022-2.921,0.104
	c-0.001,0.058-0.036,0.424-0.082,0.813c-0.105,0.943-0.919,10.062-0.919,10.313v0.195h3.421H18v2.419
	c0,1.881-0.023,2.42-0.104,2.418c-0.058-0.002-0.836-0.201-1.73-0.446l-1.626-0.445l-0.061-0.7
	c-0.033-0.386-0.083-0.935-0.111-1.222l-0.051-0.521h-1.578H11.16l0.004,0.313c0.01,0.896,0.396,4.548,0.487,4.604
	c0.056,0.034,1.506,0.45,3.226,0.928l3.124,0.863v1.567c0,0.863,0.025,1.568,0.057,1.568S19.899,32.286,22.082,31.685L22.082,31.685
	z M14.833,15.891c0.119-1.306,0.233-2.39,0.254-2.407c0.02-0.019,0.684-0.052,1.475-0.073l1.439-0.039v2.447v2.448h-1.693h-1.693
	L14.833,15.891z"/>
<path id="path76" inkscape:connector-curvature="0" fill="#0E0E0F" d="M13.495,3.878V3.086h1.126h1.127V1.543V0h0.792h0.793v2.335
	v2.336h-1.919h-1.919V3.878z M18.084,4.046V3.421h1.043c0.572,0,1.042-0.021,1.042-0.048s-0.47-0.556-1.042-1.177l-1.043-1.131
	V0.533V0h2.169h2.168v0.623v0.623L21.402,1.27l-1.018,0.022l1.06,1.142l1.061,1.142v0.549v0.547h-2.21h-2.211V4.046z"/>
</svg>
