<svg version="1.1" id="Layer_1" xmlns="http://www.w3.org/2000/svg" xmlns:xlink="http://www.w3.org/1999/xlink" x="0px" y="0px"
	 width="28px" height="28px" viewBox="-13.5 498.5 28 28" enable-background="new -13.5 498.5 28 28" xml:space="preserve">
<path fill="#FFFFFF" d="M-13.31,498.688v27.626h27.626v-27.626H-13.31z"/>
<path fill="#F6EC36" d="M-13.31,498.688v27.626h27.626v-27.626H-13.31z M12.479,510.171c-0.045,0.86-0.319,1.933-0.561,2.649
	c-0.971,2.887-2.098,4.676-4.706,4.676c-0.768,0-2.13-0.204-2.632-1.57l-0.119-0.324l-0.214,0.271
	c-0.816,1.033-2.028,1.629-3.325,1.636c-0.995,0.004-1.795-0.329-2.313-0.965l-0.142-0.175l-0.151,0.167
	c-0.552,0.61-1.515,0.96-2.64,0.96c-0.884,0-1.646-0.301-2.148-0.845l-0.137-0.149l-0.143,0.145
	c-0.558,0.563-1.438,0.847-2.543,0.821c-1.341-0.032-2.158-0.781-2.185-2.004c-0.041-1.885,1.784-5.852,2.54-7.058
	c0.49-0.806,1.165-1.196,2.062-1.196c0.611,0,1.028,0.127,1.277,0.391c0.226,0.239,0.271,0.44,0.291,0.926l0.026,0.627l0.331-0.533
	c0.801-1.29,2.128-1.469,3.444-1.469c0.914,0,1.712,0.337,2.033,0.856l0.118,0.192l0.171-0.146c0.678-0.576,1.634-0.894,2.693-0.894
	c1.155,0,1.995,0.287,2.496,0.854c0.114,0.129,0.189,0.219,0.294,0.438l0.128,0.271l0.193-0.229
	c0.733-0.867,1.734-1.307,2.977-1.307c0.984,0,1.731,0.262,2.22,0.777C12.425,508.612,12.513,509.521,12.479,510.171L12.479,510.171
	z"/>
<path fill="#D01012" d="M-13.31,498.688v27.626h27.626v-27.626H-13.31z M13.256,511.23c-0.125,1.006-0.805,2.868-1.166,3.612
	c-0.968,1.996-2.263,3.529-4.756,3.529c-1.332,0-2.428-0.425-3.068-1.241c-0.938,0.822-2.1,1.253-3.35,1.253
	c-0.963,0-1.815-0.278-2.464-0.793c-0.716,0.505-1.683,0.786-2.754,0.786c-0.895,0-1.7-0.245-2.331-0.699
	c-0.697,0.462-1.611,0.692-2.684,0.667c-1.785-0.042-3.017-1.174-3.052-2.817c-0.047-2.184,1.792-6.18,2.658-7.563
	c0.648-1.065,1.638-1.639,2.851-1.639c1.316,0,1.793,0.376,2.028,0.854c1.016-0.862,2.362-0.912,3.32-0.912
	c1.058,0,1.722,0.281,2.287,0.73c0.78-0.468,1.674-0.711,2.74-0.711c1.362,0,2.375,0.316,3.081,1.015
	c0.823-0.686,1.854-0.998,3.008-0.998c1.526,0,2.531,0.551,3.12,1.371C13.558,508.834,13.41,509.999,13.256,511.23L13.256,511.23z"
	/>
<path d="M-13.5,498.5v28h28v-28H-13.5z M14.115,498.886v27.229h-27.23v-27.229H14.115L14.115,498.886z"/>
<path d="M13.122,506.902v-0.19h0.129c0.094,0,0.144,0.033,0.144,0.094c0,0.049-0.031,0.097-0.127,0.097H13.122z M13.586,507.298
	l-0.081-0.14c-0.07-0.123-0.089-0.143-0.149-0.163v-0.004c0.118-0.014,0.188-0.089,0.188-0.194c0-0.11-0.07-0.194-0.219-0.194
	h-0.347v0.695h0.144v-0.284h0.026c0.062,0,0.086,0.007,0.114,0.034c0.028,0.028,0.07,0.088,0.095,0.137l0.056,0.113H13.586
	L13.586,507.298z M13.244,506.409c0.298,0,0.541,0.24,0.541,0.538c0,0.299-0.243,0.54-0.541,0.54s-0.538-0.242-0.538-0.54
	C12.707,506.65,12.946,506.409,13.244,506.409z M13.244,506.277c-0.371,0-0.67,0.299-0.67,0.67c0,0.372,0.299,0.671,0.67,0.671
	c0.37,0.001,0.67-0.298,0.671-0.668c0-0.001,0-0.002,0-0.003c0.001-0.369-0.298-0.67-0.667-0.671
	C13.247,506.276,13.245,506.276,13.244,506.277L13.244,506.277z M9.592,506.995c-1.447,0-2.447,0.574-3.124,1.375
	c-0.115-0.239-0.201-0.345-0.324-0.483c-0.554-0.626-1.445-0.918-2.64-0.918c-1.168,0-2.142,0.364-2.818,0.939
	c-0.351-0.571-1.188-0.949-2.197-0.949c-1.319,0-2.755,0.187-3.608,1.56c-0.021-0.494-0.065-0.756-0.343-1.05
	c-0.337-0.357-0.884-0.451-1.417-0.451c-0.97,0-1.7,0.424-2.226,1.287c-0.762,1.218-2.61,5.224-2.568,7.164
	c0.027,1.253,0.868,2.156,2.373,2.192c1.176,0.028,2.098-0.286,2.685-0.879c0.526,0.572,1.33,0.908,2.291,0.908
	c1.07,0,2.147-0.322,2.783-1.024c0.536,0.658,1.379,1.041,2.463,1.036c1.417-0.007,2.663-0.679,3.476-1.709
	c0.446,1.214,1.578,1.697,2.813,1.697c2.708,0,3.897-1.863,4.889-4.808c0.223-0.663,0.521-1.771,0.571-2.701
	C12.753,508.634,12.098,506.995,9.592,506.995L9.592,506.995z M-8.428,514.398c1.401-0.243,1.753,0.264,1.709,0.732
	c-0.132,1.404-1.421,1.719-2.54,1.692c-0.812-0.02-1.541-0.391-1.561-1.333c-0.036-1.648,1.645-5.461,2.436-6.725
	c0.366-0.6,0.811-0.896,1.521-0.896c0.673,0,0.84,0.346,0.83,0.76C-6.059,509.732-7.843,513.088-8.428,514.398L-8.428,514.398z
	 M-3.865,513.104c-0.092,0.251-0.268,0.776-0.41,1.333c0.46-0.114,0.805-0.194,1.396-0.181c0.673,0.017,1.104,0.296,1.104,0.853
	c0,1.35-1.492,1.746-2.526,1.746c-1.136,0-2.134-0.646-2.134-1.89c0-1.456,0.79-3.665,1.531-5.137
	c0.91-1.807,1.839-2.047,3.441-2.047c0.704,0,1.515,0.301,1.515,0.966c0,0.921-0.78,1.272-1.554,1.316
	c-0.331,0.02-0.839,0.037-1.143,0.016c0,0-0.257,0.393-0.531,1.092c1.433-0.202,2.04,0.123,1.798,0.952
	C-1.707,513.243-2.677,513.317-3.865,513.104L-3.865,513.104z M3.182,509.621c-0.388,0-0.641,0.245-0.83,0.51
	c-0.415,0.584-1.315,2.921-1.455,3.881c-0.096,0.657,0.188,0.791,0.499,0.791c0.498,0,1.056-0.526,1.246-1.396
	c0,0-0.948-0.023-0.687-0.863c0.254-0.815,0.736-0.992,1.534-1.025c1.573-0.064,1.417,1.098,1.292,1.717
	c-0.409,2.011-1.84,3.626-3.865,3.626c-1.386,0-2.247-0.767-2.247-2.18c0-1.008,0.5-2.589,0.896-3.514
	c0.843-1.97,1.727-3.348,3.979-3.348c1.351,0,2.417,0.486,2.261,1.752c-0.115,0.929-0.58,1.475-1.424,1.54
	c-0.236,0.019-1.203-0.006-0.882-0.92C3.61,509.872,3.657,509.621,3.182,509.621L3.182,509.621z M11.688,511.283
	c-0.238,1.186-0.774,2.588-1.355,3.633c-0.948,1.706-2.101,1.945-3.106,1.933c-1.006-0.012-2.14-0.383-2.148-1.935
	c-0.006-1.114,0.475-2.687,0.882-3.718c0.711-1.868,1.438-3.392,3.735-3.364C12.374,507.864,11.896,510.246,11.688,511.283
	L11.688,511.283z M9.416,509.66c-0.23-0.003-0.431,0.042-0.611,0.32c-0.405,0.524-1.589,3.762-1.569,4.407
	c0.008,0.231,0.136,0.435,0.421,0.435c0.328,0,0.51-0.227,0.671-0.5c0.373-0.63,1.421-3.491,1.45-4.207
	C9.786,509.907,9.751,509.664,9.416,509.66L9.416,509.66z"/>
</svg>
