<?xml version="1.0" encoding="utf-8"?>
<!-- Generator: Adobe Illustrator 16.0.3, SVG Export Plug-In . SVG Version: 6.00 Build 0)  -->
<!DOCTYPE svg PUBLIC "-//W3C//DTD SVG 1.1//EN" "http://www.w3.org/Graphics/SVG/1.1/DTD/svg11.dtd">
<svg version="1.1" id="Layer_1" xmlns="http://www.w3.org/2000/svg" xmlns:xlink="http://www.w3.org/1999/xlink" x="0px" y="0px"
	 width="28px" height="28px" viewBox="0 0 28 28" enable-background="new 0 0 28 28" xml:space="preserve">
<circle fill="#FFFFFF" cx="14.001" cy="13.956" r="13.099"/>
<path opacity="0.5" fill="#FFFFFF" enable-background="new    " d="M0,14C0,6.252,6.251,0,14,0c7.749,0,14,6.252,14,14
	c0,3.082-1.057,5.987-2.729,8.365c-0.968,0.704-2.112,1.585-2.729,2.729C20.164,26.943,17.258,28,14,28C6.251,27.912,0,21.66,0,14z"
	/>
<path fill="#D0D2D3" d="M14,27.12c-3.258,0-6.251-1.233-8.541-3.17l-0.617,0.616C7.308,26.679,10.477,28,13.999,28
	c2.818,0,5.458-0.88,7.662-2.289l-0.705-0.616C18.931,26.327,16.554,27.12,14,27.12z"/>
<path fill="#D0D2D3" d="M0.88,14C0.88,6.78,6.779,0.881,14,0.881S27.119,6.78,27.119,14c0,1.233-0.176,2.466-0.527,3.61l0.705,0.704
	C27.736,16.994,28,15.497,28,14c0-7.748-6.25-14-14-14C6.252,0,0,6.252,0,14c0,1.762,0.353,3.521,0.969,5.107l0.705-0.794
	C1.145,16.994,0.88,15.497,0.88,14z"/>
<g>
	
		<radialGradient id="SVGID_1_" cx="-224.7173" cy="-220.3169" r="0.0814" gradientTransform="matrix(53.528 0 0 53.472 12032.793 11801.293)" gradientUnits="userSpaceOnUse">
		<stop  offset="0" style="stop-color:#0082B5"/>
		<stop  offset="0.5399" style="stop-color:#005480"/>
		<stop  offset="1" style="stop-color:#003556"/>
	</radialGradient>
	<polygon fill="url(#SVGID_1_)" points="4.139,24.654 8.188,20.516 4.05,16.466 0,20.604 	"/>
	
		<radialGradient id="SVGID_2_" cx="-224.3828" cy="-220.3359" r="0.1173" gradientTransform="matrix(53.528 0 0 53.472 12032.793 11801.293)" gradientUnits="userSpaceOnUse">
		<stop  offset="0" style="stop-color:#0082B5"/>
		<stop  offset="0.5399" style="stop-color:#005480"/>
		<stop  offset="1" style="stop-color:#003556"/>
	</radialGradient>
	<polygon fill="url(#SVGID_2_)" points="21.924,13.648 16.024,19.636 22.013,25.535 28,19.548 	"/>
	
		<radialGradient id="SVGID_3_" cx="-224.5552" cy="-220.2954" r="0.0552" gradientTransform="matrix(53.528 0 0 53.472 12032.793 11801.293)" gradientUnits="userSpaceOnUse">
		<stop  offset="0" style="stop-color:#0082B5"/>
		<stop  offset="0.5399" style="stop-color:#005480"/>
		<stop  offset="1" style="stop-color:#003556"/>
	</radialGradient>
	<polygon fill="url(#SVGID_3_)" points="12.768,24.391 15.408,21.66 12.768,19.02 10.125,21.749 	"/>
	
		<radialGradient id="SVGID_4_" cx="-224.6157" cy="-220.3945" r="0.0595" gradientTransform="matrix(53.528 0 0 53.472 12032.793 11801.293)" gradientUnits="userSpaceOnUse">
		<stop  offset="0" style="stop-color:#0082B5"/>
		<stop  offset="0.5399" style="stop-color:#005480"/>
		<stop  offset="1" style="stop-color:#003556"/>
	</radialGradient>
	<polygon fill="url(#SVGID_4_)" points="9.598,19.195 12.416,16.289 9.598,13.472 6.691,16.378 	"/>
	
		<radialGradient id="SVGID_5_" cx="-224.502" cy="-220.5806" r="0.036" gradientTransform="matrix(53.528 0 0 53.472 12032.793 11801.293)" gradientUnits="userSpaceOnUse">
		<stop  offset="0" style="stop-color:#0082B5"/>
		<stop  offset="0.5399" style="stop-color:#005480"/>
		<stop  offset="1" style="stop-color:#003556"/>
	</radialGradient>
	<polygon fill="url(#SVGID_5_)" points="15.672,4.843 14.087,6.34 15.672,7.925 17.258,6.34 	"/>
	
		<radialGradient id="SVGID_6_" cx="-224.5039" cy="-220.4395" r="0.0596" gradientTransform="matrix(53.528 0 0 53.472 12032.793 11801.293)" gradientUnits="userSpaceOnUse">
		<stop  offset="0" style="stop-color:#0082B5"/>
		<stop  offset="0.5399" style="stop-color:#005480"/>
		<stop  offset="1" style="stop-color:#003556"/>
	</radialGradient>
	<polygon fill="url(#SVGID_6_)" points="15.496,11.095 12.59,14 15.496,16.817 18.402,14 	"/>
	
		<radialGradient id="SVGID_7_" cx="-224.6655" cy="-220.5171" r="0.0696" gradientTransform="matrix(53.528 0 0 53.472 12032.793 11801.293)" gradientUnits="userSpaceOnUse">
		<stop  offset="0" style="stop-color:#0082B5"/>
		<stop  offset="0.5399" style="stop-color:#005480"/>
		<stop  offset="1" style="stop-color:#003556"/>
	</radialGradient>
	<polygon fill="url(#SVGID_7_)" points="6.779,6.428 3.434,9.862 6.868,13.208 10.301,9.773 	"/>
</g>
</svg>
