<?xml version="1.0" encoding="utf-8"?>
<!-- Generator: Adobe Illustrator 16.0.3, SVG Export Plug-In . SVG Version: 6.00 Build 0)  -->
<!DOCTYPE svg PUBLIC "-//W3C//DTD SVG 1.1//EN" "http://www.w3.org/Graphics/SVG/1.1/DTD/svg11.dtd">
<svg version="1.1" id="Layer_1" xmlns="http://www.w3.org/2000/svg" xmlns:xlink="http://www.w3.org/1999/xlink" x="0px" y="0px"
	 width="28px" height="28px" viewBox="6.831 10.5 28 28" enable-background="new 6.831 10.5 28 28" xml:space="preserve">
<path fill="#3B4550" d="M15.158,24.112l2.054,1.179V22.63l5.588-3.269l-2.02-1.247l-5.622,3.302V24.112z"/>
<path fill="#64BC4F" d="M20.78,10.5l4.646,2.696L13.205,20.44v6.233l-4.443-2.594v-6.57L20.78,10.5z"/>
<path fill="#3B4550" d="M24.012,20.069l-2.054,1.179l2.356,1.381l-0.033,6.301l2.054-1.179v-6.335L24.012,20.069z"/>
<path fill="#64BC4F" d="M32.899,31.425l-4.646,2.762V20.339l-5.621-3.302l4.713-2.729l5.555,3.235V31.425z"/>
<path fill="#3B4550" d="M23.103,29.672v-2.291l-2.355,1.382l-5.589-3.269v2.291l5.622,3.269L23.103,29.672z"/>
<path fill="#64BC4F" d="M8.762,31.525v-5.122l12.019,6.873l5.521-3.302l0.034,5.324L20.914,38.5L8.762,31.525z"/>
</svg>
