<?xml version="1.0" encoding="utf-8"?>
<!-- Generator: Adobe Illustrator 16.0.3, SVG Export Plug-In . SVG Version: 6.00 Build 0)  -->
<!DOCTYPE svg PUBLIC "-//W3C//DTD SVG 1.1//EN" "http://www.w3.org/Graphics/SVG/1.1/DTD/svg11.dtd">
<svg version="1.1"
	 id="Layer_1" xmlns:cc="http://creativecommons.org/ns#" xmlns:dc="http://purl.org/dc/elements/1.1/" xmlns:rdf="http://www.w3.org/1999/02/22-rdf-syntax-ns#"
	 xmlns="http://www.w3.org/2000/svg" xmlns:xlink="http://www.w3.org/1999/xlink" x="0px" y="0px" width="28px" height="28px"
	 viewBox="-13.5 686.5 28 28" enable-background="new -13.5 686.5 28 28" xml:space="preserve">
<path fill="#FFFFFF" d="M-8.542,686.85H9.542c2.742,0,4.958,2.217,4.958,4.959v17.383c0,2.742-2.217,4.959-4.958,4.959H-8.542
	c-2.742,0-4.958-2.217-4.958-4.959v-17.383C-13.5,689.066-11.283,686.85-8.542,686.85z"/>
<path fill="#5586A4" d="M-7.714,703.235c-1.409,0-2.113-0.857-2.385-1.755c0.307,1.458,1.964,2.878,7.178,3.509
	c4.93,0.6,8.142-0.904,9.229-1.606c0,0,0.732-0.321,0.293,0.176c0,0-3.101,2.854-9.205,2.892
	c-6.091,0.028-10.934-3.027-10.897-6.128c-0.029-3.089,4.806-6.153,10.897-6.129c6.091,0.029,9.205,2.892,9.205,2.892
	c0.439,0.495-0.293,0.176-0.293,0.176c-1.083-0.7-4.287-2.076-9.229-1.606c-4.868,0.467-6.449,2.112-6.981,3.212
	c-0.202,0.427-0.295,0.829-0.317,1.233c0.131-1.058,0.792-2.299,2.496-2.299c1.927,0,2.521,1.606,2.521,2.719
	s-0.591,2.705-2.521,2.705L-7.714,703.235z M11.93,702.166H14.5v0.934h-3.657v-5.152h1.081v4.213L11.93,702.166z M7.964,700.325
	h2.163v2.78H9.406l-0.108-0.646c-0.274,0.315-0.671,0.782-1.619,0.782c-1.248,0-2.384-0.89-2.384-2.692
	c0-1.409,0.786-2.73,2.533-2.73c1.581,0,2.211,1.025,2.273,1.729H9.02c0-0.2-0.368-0.848-1.132-0.848
	c-0.771,0-1.483,0.532-1.483,1.854c0,1.407,0.771,1.767,1.508,1.767c0.237,0,1.03-0.094,1.248-1.133H7.958v-0.867L7.964,700.325z
	 M-7.727,698.435c-1.125,0-1.804,0.883-1.804,2.101c0,1.212,0.677,2.101,1.804,2.101c1.124,0,1.804-0.883,1.804-2.101
	C-5.923,699.323-6.6,698.435-7.727,698.435z M-4.811,699.807h0.525v0.466h0.013c0.133-0.189,0.385-0.561,0.987-0.561
	c0.88,0,1.507,0.741,1.507,1.667c0,0.787-0.456,1.816-1.581,1.816c-0.444,0-0.734-0.208-0.88-0.441h-0.013v1.655H-4.81v-4.595
	L-4.811,699.807z M-3.402,702.722c0.608,0,1.02-0.523,1.02-1.247c0-0.423-0.172-1.26-1.032-1.26c-0.803,0-0.892,0.862-0.892,1.396
	c0,0.875,0.551,1.108,0.904,1.108V702.722z M1.589,702.074c-0.02,0.157-0.171,0.623-0.588,0.9c-0.152,0.101-0.367,0.227-0.898,0.227
	c-0.931,0-1.483-0.698-1.483-1.654c0-1.021,0.495-1.829,1.594-1.829c0.955,0,1.421,0.756,1.421,1.927h-2.422
	c0,0.688,0.323,1.083,0.962,1.083c0.525,0,0.835-0.402,0.854-0.647h0.558L1.589,702.074z M0.999,701.198
	c-0.031-0.51-0.247-0.981-0.924-0.981c-0.513,0-0.918,0.472-0.918,0.981H0.999L0.999,701.198z M4.705,703.102H4.147v-2.025
	c0-0.574-0.164-0.863-0.709-0.863c-0.316,0-0.874,0.201-0.874,1.096v1.792H2.008v-3.299h0.525v0.466h0.013
	c0.12-0.177,0.43-0.561,1-0.561c0.512,0,1.158,0.207,1.158,1.146v2.236"/>
</svg>
