<svg version="1.1" id="Layer_1" xmlns="http://www.w3.org/2000/svg" xmlns:xlink="http://www.w3.org/1999/xlink" x="0px" y="0px"
	 width="28px" height="28px" viewBox="-13.5 498.5 28 28" enable-background="new -13.5 498.5 28 28" xml:space="preserve">
<g id="Layer_2_1_">
	<g id="Surfaces">
		<g id="Photo_Surface">
			<g id="Outline_no_shadow">
				<path fill="#001E36" d="M-8.542,498.85H9.542c2.742,0,4.958,2.217,4.958,4.958v17.384c0,2.741-2.217,4.958-4.958,4.958H-8.542
					c-2.742,0-4.958-2.217-4.958-4.958v-17.384C-13.5,501.066-11.283,498.85-8.542,498.85z"/>
			</g>
		</g>
	</g>
	<g id="Outlined_Mnemonics_Logos">
		<g id="Ps">
			<path fill="#31A8FF" d="M-7.2,517.995V505.99c0-0.082,0.035-0.129,0.117-0.129c0.199,0,0.385,0,0.653-0.012
				c0.28-0.012,0.572-0.012,0.887-0.023s0.653-0.012,1.015-0.023s0.711-0.012,1.062-0.012c0.957,0,1.75,0.117,2.403,0.362
				c0.583,0.198,1.12,0.524,1.563,0.956c0.374,0.374,0.665,0.829,0.852,1.33c0.175,0.49,0.269,0.992,0.269,1.517
				c0,1.004-0.233,1.832-0.7,2.485s-1.12,1.144-1.878,1.424c-0.793,0.291-1.668,0.396-2.625,0.396c-0.28,0-0.466,0-0.583-0.012
				s-0.28-0.012-0.502-0.012v3.745c0.012,0.081-0.046,0.151-0.128,0.163c-0.011,0-0.023,0-0.046,0H-7.06
				C-7.153,518.146-7.2,518.1-7.2,517.995z M-4.657,508.113v3.92c0.164,0.012,0.315,0.023,0.455,0.023h0.618
				c0.455,0,0.91-0.07,1.342-0.21c0.374-0.105,0.7-0.327,0.957-0.618c0.245-0.292,0.362-0.688,0.362-1.202
				c0.012-0.361-0.082-0.724-0.269-1.038c-0.198-0.304-0.478-0.537-0.816-0.665c-0.432-0.175-0.898-0.245-1.376-0.233
				c-0.304,0-0.572,0-0.793,0.012C-4.412,508.09-4.575,508.102-4.657,508.113L-4.657,508.113z"/>
			<path fill="#31A8FF" d="M8.9,511.321c-0.35-0.187-0.723-0.314-1.12-0.396c-0.432-0.094-0.863-0.151-1.307-0.151
				c-0.233-0.012-0.478,0.023-0.7,0.081c-0.152,0.035-0.28,0.117-0.362,0.233c-0.058,0.094-0.093,0.21-0.093,0.315
				c0,0.104,0.047,0.21,0.117,0.303c0.105,0.129,0.245,0.233,0.396,0.315c0.269,0.14,0.548,0.269,0.829,0.385
				c0.63,0.21,1.236,0.502,1.796,0.852c0.385,0.245,0.7,0.572,0.922,0.969c0.187,0.373,0.28,0.781,0.268,1.201
				c0.012,0.549-0.151,1.097-0.455,1.552c-0.327,0.467-0.782,0.828-1.307,1.039c-0.571,0.244-1.271,0.373-2.111,0.373
				c-0.537,0-1.062-0.047-1.587-0.151c-0.408-0.07-0.816-0.199-1.19-0.374c-0.082-0.047-0.14-0.128-0.128-0.222v-2.029
				c0-0.035,0.012-0.082,0.047-0.105s0.07-0.012,0.105,0.012c0.455,0.269,0.933,0.455,1.447,0.571
				c0.443,0.117,0.91,0.176,1.376,0.176c0.443,0,0.758-0.059,0.968-0.164c0.187-0.081,0.315-0.279,0.315-0.489
				c0-0.164-0.093-0.315-0.28-0.467c-0.187-0.152-0.572-0.327-1.144-0.549c-0.595-0.21-1.143-0.49-1.656-0.84
				c-0.362-0.257-0.665-0.595-0.887-0.991c-0.187-0.374-0.28-0.782-0.269-1.19c0-0.502,0.14-0.98,0.396-1.412
				c0.292-0.466,0.724-0.84,1.225-1.073c0.548-0.279,1.237-0.408,2.065-0.408c0.479,0,0.969,0.035,1.447,0.105
				c0.35,0.047,0.688,0.14,1.003,0.268c0.047,0.012,0.093,0.059,0.117,0.105c0.012,0.047,0.023,0.094,0.023,0.14v1.902
				c0,0.046-0.023,0.093-0.059,0.116C9.005,511.345,8.947,511.345,8.9,511.321z"/>
		</g>
	</g>
</g>
</svg>
