<svg version="1.1" id="Layer_1" xmlns="http://www.w3.org/2000/svg" xmlns:xlink="http://www.w3.org/1999/xlink" x="0px" y="0px"
	 width="28px" height="28px" viewBox="-13.5 498.5 28 28" enable-background="new -13.5 498.5 28 28" xml:space="preserve">
<title>Adobe Premiere Pro CC logo</title>
<g id="vlpa">
	<g id="vlpb">
		<g id="vlpc">
			<g id="vlpd">
				<path fill="#00005B" d="M-8.773,498.5H9.773c2.812,0,5.085,2.273,5.085,5.085v17.829c0,2.812-2.273,5.086-5.085,5.086H-8.773
					c-2.812,0-5.085-2.274-5.085-5.086v-17.829C-13.859,500.773-11.585,498.5-8.773,498.5z"/>
			</g>
		</g>
	</g>
	<g id="vlpe">
		<g id="vlpf">
			<path fill="#9999FF" d="M-7.039,518.124v-12.325c0-0.084,0.036-0.132,0.12-0.132c0.203,0,0.395,0,0.67-0.012
				c0.288-0.013,0.586-0.013,0.91-0.024c0.323-0.012,0.67-0.012,1.041-0.023c0.371-0.012,0.73-0.012,1.089-0.012
				c0.981,0,1.795,0.119,2.465,0.371c0.599,0.203,1.149,0.537,1.604,0.981c0.383,0.383,0.682,0.85,0.874,1.363
				c0.179,0.503,0.275,1.018,0.275,1.556c0,1.029-0.239,1.879-0.718,2.549c-0.479,0.67-1.148,1.173-1.926,1.46
				c-0.814,0.299-1.711,0.407-2.692,0.407c-0.287,0-0.479,0-0.599-0.013c-0.119-0.012-0.287-0.012-0.514-0.012v3.841
				c0.012,0.084-0.048,0.155-0.132,0.168h-0.047h-2.274c-0.096,0-0.144-0.049-0.144-0.155V518.124z M-4.43,507.988v4.021
				c0.167,0.013,0.323,0.024,0.466,0.024h0.634c0.467,0,0.934-0.072,1.376-0.215c0.383-0.108,0.718-0.336,0.981-0.635
				c0.251-0.299,0.371-0.706,0.371-1.232c0.012-0.371-0.084-0.742-0.275-1.065c-0.204-0.312-0.491-0.551-0.837-0.682
				c-0.443-0.18-0.922-0.251-1.413-0.239c-0.311,0-0.586,0-0.813,0.012C-4.179,507.965-4.346,507.977-4.43,507.988L-4.43,507.988z"
				/>
			<path fill="#9999FF" d="M3.73,508.695h2.095c0.119,0,0.215,0.083,0.251,0.19c0.036,0.096,0.06,0.191,0.072,0.3
				c0.023,0.119,0.048,0.251,0.06,0.371c0.012,0.131,0.024,0.275,0.024,0.431c0.359-0.419,0.79-0.767,1.28-1.029
				c0.55-0.312,1.185-0.467,1.818-0.467c0.084-0.012,0.156,0.048,0.168,0.132v0.048v2.333c0,0.096-0.06,0.132-0.191,0.132
				c-0.431-0.012-0.874,0.024-1.292,0.119c-0.347,0.072-0.682,0.181-1.005,0.323c-0.227,0.107-0.442,0.252-0.61,0.443v6.103
				c0,0.119-0.047,0.167-0.155,0.167H3.886c-0.095,0.013-0.18-0.048-0.191-0.143V518.1v-6.629c0-0.287,0-0.586-0.012-0.897
				c-0.012-0.311-0.012-0.622-0.024-0.933c0-0.275-0.024-0.539-0.048-0.814c-0.012-0.061,0.024-0.119,0.084-0.131
				C3.695,508.683,3.719,508.683,3.73,508.695L3.73,508.695z"/>
		</g>
	</g>
</g>
</svg>
