<?xml version="1.0" encoding="utf-8"?>
<!-- Generator: Adobe Illustrator 16.0.3, SVG Export Plug-In . SVG Version: 6.00 Build 0)  -->
<!DOCTYPE svg PUBLIC "-//W3C//DTD SVG 1.1//EN" "http://www.w3.org/Graphics/SVG/1.1/DTD/svg11.dtd">
<svg version="1.1" id="Layer_1" xmlns="http://www.w3.org/2000/svg" xmlns:xlink="http://www.w3.org/1999/xlink" x="0px" y="0px"
	 width="28px" height="28px" viewBox="3.5 3.5 28 28" enable-background="new 3.5 3.5 28 28" xml:space="preserve">
<path fill="#3178C6" d="M6.234,3.5h22.531c1.511,0,2.734,1.224,2.734,2.734v22.531c0,1.511-1.224,2.734-2.734,2.734H6.234
	c-1.511,0-2.734-1.224-2.734-2.734V6.234C3.5,4.724,4.724,3.5,6.234,3.5z"/>
<path fill="#FFFFFF" d="M20.836,25.758v2.734c0.443,0.229,0.984,0.399,1.586,0.515s1.258,0.169,1.914,0.169
	c0.657,0,1.258-0.06,1.859-0.185c0.602-0.127,1.094-0.334,1.531-0.602c0.443-0.291,0.82-0.656,1.039-1.15
	c0.219-0.492,0.388-1.039,0.388-1.75c0-0.497-0.076-0.93-0.224-1.313s-0.361-0.711-0.656-0.984
	c-0.279-0.289-0.602-0.547-0.984-0.766c-0.382-0.219-0.819-0.449-1.313-0.656c-0.36-0.146-0.656-0.289-0.983-0.432
	c-0.284-0.143-0.53-0.283-0.712-0.426c-0.202-0.148-0.354-0.301-0.465-0.459c-0.109-0.164-0.164-0.346-0.164-0.548
	c0-0.185,0.049-0.354,0.148-0.509s0.235-0.279,0.41-0.389c0.176-0.107,0.394-0.189,0.656-0.25c0.257-0.061,0.542-0.088,0.875-0.088
	c0.229,0,0.471,0.018,0.711,0.052c0.252,0.034,0.51,0.087,0.766,0.159c0.258,0.07,0.51,0.157,0.766,0.268
	c0.241,0.109,0.465,0.234,0.656,0.377v-2.57c-0.416-0.158-0.875-0.279-1.367-0.355c-0.492-0.076-1.039-0.115-1.695-0.115
	s-1.258,0.071-1.859,0.208s-1.093,0.355-1.531,0.656c-0.442,0.295-0.766,0.656-1.039,1.149c-0.256,0.459-0.383,0.984-0.383,1.641
	c0,0.82,0.235,1.531,0.711,2.078c0.471,0.602,1.203,1.039,2.133,1.477c0.378,0.153,0.711,0.307,1.039,0.454s0.602,0.301,0.82,0.458
	c0.235,0.159,0.421,0.334,0.547,0.52c0.137,0.187,0.208,0.405,0.208,0.656c0,0.176-0.042,0.34-0.125,0.492s-0.214,0.284-0.388,0.394
	c-0.175,0.11-0.389,0.196-0.656,0.263c-0.257,0.061-0.548,0.093-0.93,0.093c-0.602,0-1.203-0.104-1.751-0.313
	c-0.602-0.208-1.148-0.519-1.641-0.929L20.836,25.758z M16.243,19.031h3.5v-2.242h-9.79v2.242h3.5v10.008h2.789V19.031H16.243z"/>
</svg>
