<?xml version="1.0" encoding="utf-8"?>
<!-- Generator: Adobe Illustrator 16.0.3, SVG Export Plug-In . SVG Version: 6.00 Build 0)  -->
<!DOCTYPE svg PUBLIC "-//W3C//DTD SVG 1.1//EN" "http://www.w3.org/Graphics/SVG/1.1/DTD/svg11.dtd">
<svg version="1.1" id="Layer_1" xmlns="http://www.w3.org/2000/svg" xmlns:xlink="http://www.w3.org/1999/xlink" x="0px" y="0px"
	 width="28px" height="28px" viewBox="135.5 803.75 28 28" enable-background="new 135.5 803.75 28 28" xml:space="preserve">
<path id="imagebot_10" fill="#AA6B2F" stroke="#000000" stroke-width="0.0942" stroke-opacity="0" d="M162.842,810.107l-8.465-1.398
	l-18.379,8.828l-0.193,7.523l13.556,1.641l13.458-12.156L162.842,810.107z"/>
<path id="imagebot_7" fill="#7F3F00" stroke="#000000" stroke-width="0.0942" stroke-opacity="0" d="M154.172,808.359l-0.122,0.057
	l-18.334,8.775l-0.216-0.025v0.52v7.332v0.412l0.408,0.047l13.75,1.604l0.515,0.061v-0.129l0.026,0.027l13.141-12.213l0.146-0.137
	v-0.201l0.013-4.592l0.001-0.41l-0.407-0.049l-8.787-1.063L154.172,808.359L154.172,808.359z M154.474,809.324l0.483,0.059
	c-0.767,0.5-1.186,0.732-1.958,1.09c-0.424,0.195-0.988,0.471-1.255,0.611s-0.961,0.461-1.543,0.713
	c-2.209,0.953-4.286,2.049-5.199,2.744c-0.692,0.525-0.692,0.738,0,0.309c0.249-0.154,0.736-0.473,1.084-0.705
	c0.672-0.451,1.104-0.637,2.427-1.049c1.559-0.484,6.708-2.873,7.168-3.322c0.098-0.098,0.205-0.186,0.318-0.266l0.426,0.051
	c-0.185,0.072-0.289,0.145-0.399,0.252c-0.121,0.119-0.37,0.313-0.554,0.432c-0.506,0.322-2.552,1.338-3.73,1.848
	c-0.574,0.248-1.461,0.668-1.969,0.932c-0.508,0.266-1.445,0.707-2.083,0.98c-1.566,0.674-2.227,1.004-3.063,1.529
	c-1.169,0.736-2.044,1.369-3.163,2.33l-1.335-0.154c0.314-0.328,0.549-0.521,0.981-0.846c0.201-0.15,0.776-0.67,1.277-1.154
	c0.771-0.746,0.902-0.889,0.854-0.938c-0.009-0.01-0.022-0.014-0.039-0.012c-0.049,0.004-0.129,0.049-0.225,0.131
	c-0.113,0.098-0.538,0.422-0.943,0.721c-0.682,0.5-1.516,1.221-2.381,2.043l-0.764-0.09c0.146-0.156,0.285-0.303,0.396-0.41
	c0.291-0.287,0.603-0.643,0.73-0.834c0.038-0.059,0.112-0.148,0.212-0.264l8.271-3.957c0.069-0.023,0.143-0.049,0.22-0.08
	c0.227-0.09,0.762-0.303,1.188-0.473c0.76-0.305,3.139-1.436,4.146-1.973C154.168,809.51,154.317,809.422,154.474,809.324
	L154.474,809.324z M157.834,809.869c0.087,0,0.145,0.033,0.201,0.09c0.166,0.168,0.054,0.396-0.392,0.807
	c-0.29,0.268-0.354,0.35-0.31,0.396c0.074,0.074,0.788-0.283,1.4-0.705c0.165-0.113,0.396-0.301,0.668-0.537l0.361,0.043
	c-0.465,0.418-0.854,0.74-1.082,0.889c-0.653,0.424-1.178,0.689-2.163,1.09c-0.563,0.23-1.047,0.385-1.194,0.381
	c-0.236-0.004-0.244-0.014-0.205-0.193c0.022-0.102,0.069-0.213,0.104-0.248c0.034-0.035,0.427-0.268,0.872-0.518
	c1-0.561,1.266-0.754,1.165-0.855c-0.044-0.045-0.209-0.004-0.434,0.107c-0.2,0.098-0.572,0.217-0.827,0.266
	c-0.49,0.094-1.122,0.41-2.351,1.18c-0.346,0.217-0.98,0.559-1.413,0.758c-0.432,0.199-0.942,0.465-1.134,0.59
	s-0.671,0.336-1.063,0.467c-1.067,0.357-1.775,0.684-2.753,1.266c-0.484,0.289-1.509,0.854-2.277,1.256
	c-0.768,0.402-1.575,0.854-1.792,1.002c-0.188,0.129-0.436,0.326-0.735,0.582l-0.439-0.051c0.982-0.838,1.723-1.26,3.297-2.086
	c0.847-0.445,1.793-0.971,2.102-1.168c0.654-0.42,0.815-0.498,2.362-1.141c0.639-0.264,1.188-0.508,1.222-0.541
	c0.034-0.033,0.273-0.148,0.532-0.256c0.857-0.359,1.374-0.621,2.058-1.045c1.087-0.672,1.965-1.111,2.384-1.193
	c0.21-0.041,0.659-0.193,0.996-0.342C157.456,809.957,157.688,809.869,157.834,809.869L157.834,809.869z M160.471,810.049
	l0.409,0.049c-0.364,0.289-0.895,0.701-1.381,1.072c-1.666,1.275-2.395,1.678-3.505,1.936c-1.102,0.258-2.663,0.676-2.998,0.803
	c-0.237,0.09-0.307,0.08-0.442-0.057l-0.16-0.166l-1.22,0.52c-1.314,0.559-3.787,1.838-4.046,2.092
	c-0.383,0.377,0.296,0.104,2.047-0.824c1.697-0.898,2.516-1.182,2.949-1.02c0.115,0.043,0.226,0.096,0.245,0.115
	c0.104,0.104,0.688-0.033,1.564-0.367c0.541-0.205,1.446-0.496,2.012-0.645c0.679-0.178,1.42-0.449,2.107-0.762l-1.466,1.035
	c-0.091,0.027-0.176,0.049-0.248,0.063c-0.893,0.154-1.636,0.383-1.671,0.518c-0.028,0.107,0.349,0.133,0.677,0.043
	c0.175-0.047,0.496-0.166,0.713-0.266c0.018-0.008,0.041-0.018,0.063-0.025l-1.196,0.846c-0.043-0.014-0.102-0.02-0.173-0.02
	c-0.414,0-1.211,0.207-1.306,0.408c-0.076,0.16,0.081,0.229,0.443,0.195c0.084-0.006,0.191-0.031,0.306-0.068l-0.877,0.619
	c-0.194,0.051-0.351,0.121-0.521,0.23c-0.518,0.336-1.364,0.672-1.622,0.643c-0.431-0.051-1.643,0.563-2.603,1.32
	c-0.153,0.121-0.273,0.221-0.371,0.313l-0.41-0.049c0.053-0.043,0.107-0.086,0.172-0.141c0.715-0.6,1.469-1.123,2.285-1.582
	c0.583-0.328,0.691-0.359,1.271-0.375c0.319-0.01,0.767-0.227,1.063-0.518c0.187-0.184,0.241-0.277,0.157-0.283
	c-0.065-0.004-0.216,0.045-0.451,0.145c-0.426,0.182-0.586,0.207-1.033,0.166c-0.63-0.059-0.73-0.031-1.443,0.369
	c-0.481,0.271-0.631,0.387-1.223,0.951c-0.476,0.453-0.897,0.9-1.162,1.227l-0.653-0.078c0.063-0.08,0.136-0.158,0.229-0.25
	c0.184-0.18,0.474-0.43,0.644-0.557c0.171-0.127,0.557-0.461,0.857-0.742c0.422-0.395,0.678-0.588,1.112-0.842
	c0.31-0.182,0.654-0.396,0.766-0.477c0.277-0.203,0.564-0.252,0.833-0.139c0.412,0.17,1.284-0.014,1.618-0.34
	c0.156-0.152,0.092-0.189-0.234-0.137c-0.153,0.025-0.457-0.008-0.676-0.074c-0.164-0.049-0.267-0.074-0.38-0.068
	c-0.145,0.006-0.308,0.064-0.637,0.195c-0.612,0.244-3.683,1.756-4.636,2.283c-0.352,0.195-0.909,0.525-1.541,0.91l-0.557-0.066
	c0.547-0.355,0.844-0.566,0.854-0.609c0.006-0.023-0.01-0.031-0.042-0.029c-0.143,0.008-0.613,0.23-1.114,0.535
	c-0.032,0.02-0.063,0.039-0.094,0.059l-0.524-0.061c0.51-0.334,1.082-0.67,1.768-1.043c0.568-0.309,1.576-0.863,2.238-1.232
	c1.698-0.947,3.061-1.637,3.777-1.916c0.338-0.131,0.953-0.398,1.365-0.592c0.872-0.412,1.325-0.57,1.401-0.492
	c0.03,0.031,0.05,0.139,0.044,0.24c-0.014,0.246,0.101,0.26,0.632,0.08c0.244-0.082,0.944-0.283,1.557-0.445
	c0.947-0.254,1.2-0.35,1.708-0.65c0.327-0.195,0.725-0.455,0.881-0.58s0.681-0.52,1.165-0.877
	C160.033,810.385,160.276,810.199,160.471,810.049L160.471,810.049z M162.573,810.727l-0.003,1.035
	c-0.539,0.432-0.996,0.818-1.035,0.879c-0.135,0.211,0.172,0.076,0.918-0.404l0.116-0.074l-0.001,0.426l-0.484,0.314
	c-0.599,0.387-1.295,0.813-1.546,0.945c-0.251,0.131-0.896,0.494-1.433,0.805c-1.227,0.713-2.769,1.439-3.593,1.691
	c-0.349,0.107-1.086,0.375-1.64,0.592c-0.059,0.023-0.119,0.047-0.18,0.07l1.405-0.994c0.092-0.031,0.18-0.061,0.255-0.086
	c1.121-0.367,1.896-0.789,1.495-0.813c-0.007-0.002-0.015-0.002-0.022,0c-0.104,0.004-0.369,0.07-0.686,0.162l1.046-0.74
	c0.428-0.156,0.753-0.332,0.839-0.467c0.016-0.023-0.003-0.035-0.047-0.035c-0.023,0-0.057,0.004-0.095,0.01l1.938-1.371
	c0.261-0.156,0.535-0.33,0.834-0.527c0.698-0.463,1.256-0.869,1.809-1.342L162.573,810.727L162.573,810.727z M160.101,812.965
	c-0.102,0-0.409,0.148-0.931,0.447c-0.489,0.281-0.898,0.518-0.909,0.527c-0.085,0.084,0.132,0.063,0.584-0.061
	c0.537-0.146,0.871-0.346,1.18-0.705C160.144,813.035,160.17,812.965,160.101,812.965L160.101,812.965z M162.564,813.711v0.291
	c-0.878,0.82-0.725,0.719-3.777,2.027c-0.65,0.279-1.331,0.604-1.513,0.721c-0.182,0.115-0.672,0.377-1.09,0.576
	c-0.95,0.457-1.339,0.729-2.32,1.619c-0.667,0.607-0.836,0.736-1.169,0.895c-0.393,0.186-0.81,0.23-1.074,0.115
	c-0.37-0.162-0.919-0.016-1.28,0.34c-0.038,0.037-0.1,0.09-0.168,0.146v-0.945l1.124-0.795c0.214-0.115,0.443-0.238,0.618-0.336
	c0.292-0.164,0.911-0.465,1.374-0.668c0.638-0.279,0.945-0.375,1.265-0.391c0.336-0.02,0.649-0.121,1.537-0.504
	c0.612-0.266,1.468-0.631,1.902-0.814c1.261-0.537,3.188-1.389,3.521-1.557C161.768,814.303,161.965,814.172,162.564,813.711
	L162.564,813.711z M160.841,815.66l-0.363,0.379c-0.409,0.43-0.685,0.607-1.99,1.287c-1.366,0.715-1.853,1.111-2.767,2.264
	c-0.385,0.482-0.442,0.582-0.379,0.646c0.066,0.068,0.165,0.006,0.82-0.521c0.703-0.564,0.76-0.617,1.011-0.986
	c0.26-0.379,0.275-0.393,0.632-0.584c0.201-0.107,0.495-0.236,0.654-0.287l0.289-0.094l-1.794,1.725l-0.397,0.381l-1.562,1.453
	l-0.757,0.502c-1.108,0.736-1.971,1.234-2.631,1.521c-0.27,0.115-0.62,0.281-0.779,0.367c-0.125,0.068-0.393,0.193-0.655,0.311v-1
	c0.009-0.004,0.018-0.01,0.026-0.014c0.339-0.178,2.111-0.893,3.226-1.301c0.629-0.23,1.103-0.518,1.279-0.771
	c0.091-0.131,0.057-0.24-0.026-0.246c-0.038-0.002-0.085,0.02-0.136,0.068c-0.065,0.064-0.527,0.33-1.027,0.59
	c-0.735,0.383-1.093,0.523-1.868,0.734c-0.641,0.174-1.068,0.314-1.474,0.5v-1.033c0.14-0.123,0.252-0.219,0.307-0.258
	c0.242-0.174,1.167-0.506,2.564-0.922c0.779-0.232,1.099-0.418,1.429-0.826c1.072-1.328,1.332-1.619,1.617-1.809
	c0.158-0.104,0.606-0.299,0.998-0.434c0.856-0.297,1.968-0.768,2.994-1.27L160.841,815.66L160.841,815.66z M138.936,816.674
	c-0.291,0.293-0.56,0.563-0.794,0.801l-0.31-0.035c0.147-0.15,0.291-0.297,0.438-0.447L138.936,816.674z M145.682,817.121
	c-0.05,0.006-0.137,0.057-0.221,0.141c-0.136,0.135-0.135,0.139,0.036,0.074c0.098-0.035,0.193-0.1,0.213-0.141
	C145.736,817.139,145.72,817.117,145.682,817.121L145.682,817.121z M151.593,817.363l-2.04,1.443l-0.703-0.082
	c0.2-0.291,0.354-0.348,0.743-0.498c0.26-0.102,0.916-0.383,1.459-0.627C151.233,817.52,151.417,817.439,151.593,817.363
	L151.593,817.363z M137.456,817.383c-0.004,0.004-0.008,0.008-0.012,0.012l-0.011-0.002L137.456,817.383L137.456,817.383z
	 M136.423,818.203l1.032,0.121c-0.383,0.082-0.728,0.178-1.032,0.287V818.203z M145.929,818.205c0.037,0,0.063,0.008,0.079,0.025
	c0.054,0.053,0.07,0.082,0.004,0.162l-0.522-0.061C145.691,818.246,145.841,818.203,145.929,818.205L145.929,818.205z
	 M138.897,818.492l5.159,0.602c-0.471,0.049-0.878,0.107-0.953,0.15c-0.038,0.021-0.054,0.074-0.035,0.119
	c0.048,0.115,0.636,0.164,1.422,0.119c0.565-0.031,0.79-0.016,1.601,0.107c1.443,0.219,2.263,0.422,3.159,0.822v1.102
	c-0.073-0.045-0.151-0.09-0.235-0.135c-0.278-0.148-0.68-0.387-0.891-0.529c-0.212-0.143-0.531-0.328-0.709-0.41
	c-0.317-0.148-0.34-0.152-1.385-0.156c-1.175-0.006-2.405-0.15-2.907-0.344c-0.153-0.059-0.543-0.143-0.867-0.188
	s-0.803-0.117-1.063-0.162s-0.776-0.098-1.149-0.115c-0.116-0.004-0.227-0.008-0.331-0.008c-0.73,0.002-1.212,0.154-2.121,0.631
	c-0.283,0.148-0.538,0.27-0.565,0.27s-0.159,0.09-0.292,0.199c-0.229,0.189-0.241,0.213-0.213,0.443
	c0.026,0.223,0.07,0.279,0.473,0.621c0.247,0.211,0.633,0.469,0.876,0.586c0.294,0.141,0.543,0.316,0.774,0.545
	c0.396,0.395,1.02,0.789,1.469,0.932c0.493,0.156,0.948,0.352,1.316,0.566c0.188,0.109,0.543,0.266,0.79,0.35
	c0.247,0.082,0.674,0.227,0.95,0.322c1.095,0.379,1.14,0.391,1.783,0.418c0.697,0.031,1.41-0.047,1.785-0.197
	c0.307-0.123,1.141-0.643,1.603-0.998c0.199-0.152,0.544-0.355,0.767-0.451c0.05-0.021,0.097-0.045,0.143-0.068v1.117
	c-0.204,0.117-0.404,0.205-0.616,0.268c-0.166,0.049-0.56,0.184-0.872,0.297c-0.688,0.246-1.12,0.359-1.715,0.416l-3.569-0.416
	c-0.145-0.074-0.289-0.156-0.436-0.248c-0.207-0.131-0.529-0.332-0.716-0.449s-0.615-0.311-0.951-0.43
	c-0.623-0.219-1.03-0.424-1.924-0.971c-0.275-0.168-0.758-0.42-1.07-0.557c-0.269-0.117-0.669-0.322-0.959-0.486v-2.504
	c0.522-0.277,0.827-0.379,1.301-0.434c0.253-0.029,0.513-0.066,0.578-0.086c0.453-0.131,2.657,0.006,3.575,0.223
	c0.416,0.098,0.648,0.102,0.786,0.01c0.166-0.111,0.019-0.172-0.644-0.27c-0.324-0.047-0.974-0.148-1.444-0.227
	c-0.545-0.09-0.813-0.121-1.167-0.121c-0.118,0-0.246,0.004-0.396,0.01c-0.859,0.035-1.359,0.148-2.397,0.533
	c-0.058,0.021-0.129,0.047-0.192,0.07v-0.326C137.456,818.652,138.055,818.516,138.897,818.492L138.897,818.492z M147.822,819.533
	l1.428,0.166v0.439c-0.363-0.15-0.811-0.34-1.375-0.584C147.857,819.547,147.841,819.541,147.822,819.533L147.822,819.533z
	 M140.233,820.158c0.362,0,0.683,0.082,1.354,0.285c0.529,0.158,1.268,0.369,1.641,0.465l0.679,0.176l0.826-0.09
	c0.454-0.049,0.919-0.09,1.034-0.09c0.364,0.002,0.892,0.158,1.62,0.484c0.39,0.174,0.905,0.369,1.147,0.434
	c0.298,0.078,0.555,0.211,0.715,0.355v0.686c-0.23,0.346-0.647,0.787-0.978,0.994c-0.269,0.168-1.597,0.717-1.938,0.801
	c-0.327,0.08-2.404,0.018-2.781-0.084c-0.162-0.043-0.606-0.16-0.987-0.262c-0.846-0.223-0.971-0.279-2.049-0.934
	c-0.472-0.285-1.136-0.643-1.477-0.791c-0.622-0.273-0.848-0.439-1.145-0.844c-0.182-0.248-0.191-0.469-0.032-0.742
	c0.227-0.391,0.725-0.631,1.585-0.764C139.781,820.188,140.015,820.158,140.233,820.158L140.233,820.158z M140.416,820.584
	c-0.284-0.002-1.112,0.26-1.283,0.404c-0.212,0.178-0.199,0.414,0.04,0.738c0.114,0.156,0.384,0.387,0.664,0.574
	c0.26,0.172,0.716,0.516,1.014,0.764c0.355,0.295,0.692,0.518,0.974,0.646c0.431,0.193,1.978,0.6,2.162,0.566
	c0.215-0.037,0.089-0.172-0.245-0.264c-0.188-0.051-0.61-0.193-0.938-0.32c-0.544-0.209-0.646-0.271-1.173-0.732
	c-0.581-0.508-0.88-0.91-0.88-1.186c0-0.189,0.396-0.529,0.672-0.576c0.145-0.025,0.359-0.008,0.616,0.053
	c0.831,0.195,1.263,0.256,1.313,0.184c0.071-0.105,0.02-0.141-0.345-0.232c-0.187-0.049-0.558-0.16-0.826-0.25
	C141.667,820.781,140.733,820.584,140.416,820.584L140.416,820.584z M145.464,821.453c-0.069,0.004-0.111,0.023-0.111,0.064
	c0,0.049,0.046,0.104,0.103,0.121s0.335,0.127,0.618,0.242c0.282,0.117,0.614,0.227,0.736,0.244l0.224,0.029l-0.167-0.162
	C146.596,821.73,145.766,821.436,145.464,821.453L145.464,821.453z M141.512,821.512c-0.078,0.004-0.13,0.023-0.203,0.055
	c-0.282,0.123-0.276,0.32,0.022,0.664c0.383,0.439,0.747,0.752,1.079,0.926c0.57,0.299,0.714,0.191,0.203-0.152
	c-0.401-0.27-0.506-0.406-0.506-0.652c0-0.297,0.165-0.402,0.597-0.385c0.306,0.012,0.348,0.002,0.348-0.086
	c0-0.086-0.117-0.123-0.771-0.252c-0.414-0.08-0.608-0.115-0.734-0.117C141.534,821.512,141.522,821.512,141.512,821.512
	L141.512,821.512z M143.594,822.328c-0.509,0-0.941,0.008-1.033,0.021c-0.027,0.004-0.039,0.061-0.029,0.125
	c0.014,0.084,0.168,0.203,0.521,0.402c0.508,0.285,0.77,0.377,0.889,0.309c0.042-0.023,0-0.098-0.118-0.209
	c-0.295-0.277-0.212-0.352,0.401-0.357c0.28-0.002,0.568-0.014,0.64-0.025c0.173-0.029,0.424,0.061,0.469,0.168
	c0.069,0.164-0.139,0.264-0.674,0.318c-0.396,0.043-0.519,0.074-0.532,0.141c-0.057,0.273,1.624,0.168,1.908-0.117
	c0.062-0.063,0.085-0.145,0.064-0.223c-0.045-0.158-0.347-0.457-0.524-0.52C145.509,822.338,144.443,822.326,143.594,822.328
	L143.594,822.328z M148.017,822.633c-0.063-0.002-0.115,0.074-0.199,0.246c-0.162,0.336-0.449,0.646-0.779,0.846
	c-0.277,0.168-0.349,0.297-0.163,0.297c0.189,0,0.625-0.162,0.79-0.293c0.188-0.152,0.493-0.59,0.547-0.787
	c0.026-0.096,0.009-0.168-0.058-0.229C148.099,822.662,148.056,822.633,148.017,822.633L148.017,822.633z M136.422,822.674
	c0.695,0.387,1.687,0.9,2.204,1.135c0.199,0.09,0.566,0.213,0.816,0.27c0.453,0.105,0.552,0.158,1.227,0.654
	c0.194,0.143,0.424,0.297,0.662,0.449l-0.739-0.086c-0.164-0.105-0.354-0.238-0.484-0.34c-0.233-0.182-0.445-0.285-0.796-0.391
	c-0.711-0.213-1.014-0.336-1.588-0.652c-0.286-0.156-0.675-0.355-0.863-0.443c-0.092-0.041-0.254-0.127-0.438-0.229V822.674
	L136.422,822.674z M146.763,822.844c-0.076,0.002-0.163,0.064-0.231,0.193c-0.139,0.266-0.349,0.387-1.076,0.625
	c-0.057,0.018-0.103,0.07-0.103,0.115c0,0.064,0.069,0.082,0.302,0.082c0.166,0,0.413-0.029,0.546-0.064
	c0.322-0.088,0.745-0.471,0.743-0.672C146.942,822.938,146.861,822.84,146.763,822.844L146.763,822.844z M153.078,823.104
	l-2.906,2.701v-1.145c0.199-0.152,0.398-0.291,0.593-0.412c0.382-0.236,1.656-0.867,2.272-1.127L153.078,823.104L153.078,823.104z
	 M136.422,823.689c0.816,0.465,1.681,0.922,2.253,1.182l-0.804-0.094c-0.499-0.25-1.052-0.545-1.449-0.779V823.689L136.422,823.689z
	 M136.422,824.555c0.043,0.023,0.084,0.047,0.126,0.068l-0.126-0.014V824.555z M149.25,825.023v0.635
	c-0.267,0.109-0.565,0.223-0.898,0.342l-1.04-0.121C147.981,825.654,148.662,825.352,149.25,825.023L149.25,825.023z"/>
</svg>
