<?xml version="1.0" encoding="utf-8"?>
<!-- Generator: Adobe Illustrator 16.0.3, SVG Export Plug-In . SVG Version: 6.00 Build 0)  -->
<!DOCTYPE svg PUBLIC "-//W3C//DTD SVG 1.1//EN" "http://www.w3.org/Graphics/SVG/1.1/DTD/svg11.dtd">
<svg version="1.1" id="Layer_1" xmlns="http://www.w3.org/2000/svg" xmlns:xlink="http://www.w3.org/1999/xlink" x="0px" y="0px"
	 width="18px" height="18px" viewBox="-346.5 353.5 18 18" enable-background="new -346.5 353.5 18 18" xml:space="preserve">
<path d="M-341.62,371.25c-0.486,0-0.899-0.17-1.239-0.512c-0.34-0.34-0.511-0.754-0.511-1.238c0-0.486,0.17-0.9,0.511-1.24
	s0.753-0.51,1.239-0.51c0.483,0,0.901,0.171,1.239,0.51c0.341,0.34,0.511,0.754,0.511,1.24c0,0.484-0.17,0.898-0.511,1.238
	C-340.721,371.08-341.134,371.25-341.62,371.25z"/>
<path d="M-331.928,371.25c-0.485,0-0.898-0.17-1.238-0.512c-0.342-0.34-0.512-0.754-0.512-1.238c0-0.489,0.169-0.899,0.512-1.24
	c0.34-0.34,0.753-0.51,1.238-0.51c0.486,0,0.899,0.17,1.24,0.51c0.34,0.34,0.51,0.754,0.51,1.24c0,0.484-0.17,0.898-0.51,1.238
	C-331.029,371.08-331.442,371.25-331.928,371.25z"/>
<path d="M-340.346,367.309h9.442l1,0.582v0.918h-11.442c-0.667,0-1.167-0.289-1.503-0.863c-0.335-0.574-0.347-1.148-0.036-1.723
	l2.427-2.564l-3.639-7.658H-346v-1.5h2.846l0.95,2h12.11c0.409,0,0.718,0.174,0.928,0.521c0.21,0.35,0.22,0.705,0.03,1.066
	l-2.43,5.805c-0.164,0.289-0.381,0.514-0.651,0.674c-0.27,0.16-0.565,0.242-0.887,0.242h-6.296l-1.584,2.004"/>
</svg>
