<?xml version="1.0" encoding="utf-8"?>
<!-- Generator: Adobe Illustrator 16.0.3, SVG Export Plug-In . SVG Version: 6.00 Build 0)  -->
<!DOCTYPE svg PUBLIC "-//W3C//DTD SVG 1.1//EN" "http://www.w3.org/Graphics/SVG/1.1/DTD/svg11.dtd">
<svg version="1.1" id="Layer_1" xmlns="http://www.w3.org/2000/svg" xmlns:xlink="http://www.w3.org/1999/xlink" x="0px" y="0px"
	 width="80.469px" height="24.563px" viewBox="-67.75 688.375 80.469 24.563" enable-background="new -67.75 688.375 80.469 24.563"
	 xml:space="preserve">
<g id="crown">
	<path fill="#E6C100" d="M0.438,688.375c-6.046,0-11.06,4.373-12.081,10.125H-67.75v4v8.949h2.906l0.031-7.918h3.063v4.918
		l2.922-0.012l0.015-4.969h3.031l0,6.98h2.938V702.5h41.153c0.892,5.906,5.974,10.438,12.128,10.438
		c6.783,0,12.281-5.498,12.281-12.281C12.719,693.874,7.22,688.375,0.438,688.375z M6.344,707.359v0.84H0.502h-5.843v-0.84v-0.841
		h5.843h5.842V707.359z M9.105,697.232c-0.157,0.179-0.508,0.365-0.756,0.398c-0.143,0.018-0.183,0.04-0.197,0.102
		c-0.011,0.041-0.387,1.889-0.84,4.098c-0.453,2.213-0.84,4.107-0.862,4.211l-0.04,0.186H0.502h-5.908l-0.044-0.193
		c-0.044-0.212-1.307-6.395-1.534-7.512c-0.081-0.391-0.153-0.748-0.165-0.789c-0.015-0.062-0.055-0.084-0.19-0.102
		c-0.584-0.077-1.041-0.581-1.143-1.253c-0.127-0.818,0.413-1.617,1.158-1.713c0.142-0.018,0.252-0.003,0.453,0.059
		c0.234,0.069,0.296,0.109,0.508,0.321c0.182,0.187,0.263,0.3,0.328,0.464c0.237,0.632,0.113,1.322-0.317,1.753l-0.168,0.168
		l0.289,0.428c0.993,1.464,1.964,2.392,2.753,2.64c0.285,0.088,0.504,0.069,0.803-0.069c0.277-0.128,0.796-0.653,1.106-1.125
		c0.449-0.675,0.971-1.774,1.406-2.939c0.259-0.697,0.255-0.672,0.117-0.745c-0.171-0.087-0.423-0.332-0.522-0.504
		c-0.19-0.328-0.263-0.716-0.208-1.077c0.095-0.599,0.442-1.029,0.96-1.197c0.091-0.029,0.252-0.044,0.395-0.037
		c0.599,0.029,1.099,0.548,1.198,1.234c0.095,0.676-0.197,1.278-0.782,1.618c-0.062,0.036-0.062,0.047,0,0.237
		c0.164,0.511,0.683,1.76,0.975,2.337c0.617,1.237,1.168,1.936,1.746,2.22c0.292,0.143,0.621,0.139,0.953-0.018
		c0.807-0.376,1.665-1.242,2.607-2.637l0.245-0.358l-0.168-0.171c-0.719-0.741-0.522-2.057,0.373-2.494
		c0.296-0.146,0.668-0.146,0.964,0C9.562,695.198,9.777,696.462,9.105,697.232z"/>
</g>
</svg>
