<?xml version="1.0" encoding="utf-8"?>
<!-- Generator: Adobe Illustrator 16.0.3, SVG Export Plug-In . SVG Version: 6.00 Build 0)  -->
<!DOCTYPE svg PUBLIC "-//W3C//DTD SVG 1.1//EN" "http://www.w3.org/Graphics/SVG/1.1/DTD/svg11.dtd">
<svg version="1.1" id="Layer_1" xmlns="http://www.w3.org/2000/svg" xmlns:xlink="http://www.w3.org/1999/xlink" x="0px" y="0px"
	 width="18px" height="18px" viewBox="-8.5 691.5 18 18" enable-background="new -8.5 691.5 18 18" xml:space="preserve">
<path d="M0.184,692.84c-0.519,0.168-0.866,0.599-0.96,1.197c-0.055,0.361,0.018,0.749,0.208,1.077
	c0.099,0.172,0.351,0.417,0.522,0.504c0.139,0.073,0.143,0.048-0.117,0.745c-0.435,1.165-0.957,2.265-1.406,2.939
	c-0.311,0.472-0.829,0.997-1.106,1.125c-0.299,0.139-0.519,0.157-0.803,0.069c-0.789-0.248-1.76-1.176-2.753-2.64l-0.289-0.428
	l0.168-0.168c0.431-0.431,0.555-1.121,0.317-1.753c-0.065-0.164-0.146-0.277-0.328-0.464c-0.212-0.212-0.274-0.252-0.508-0.321
	c-0.201-0.062-0.311-0.076-0.453-0.059c-0.745,0.096-1.285,0.895-1.158,1.713c0.103,0.672,0.559,1.176,1.143,1.253
	c0.135,0.018,0.175,0.04,0.19,0.102c0.011,0.041,0.084,0.398,0.165,0.789c0.227,1.117,1.49,7.3,1.534,7.512l0.044,0.193h5.908H6.41
	l0.04-0.186c0.022-0.104,0.409-1.998,0.862-4.211c0.453-2.209,0.829-4.057,0.84-4.098c0.015-0.062,0.055-0.084,0.197-0.102
	c0.248-0.033,0.599-0.22,0.756-0.398c0.672-0.771,0.457-2.034-0.417-2.461c-0.295-0.146-0.668-0.146-0.964,0
	c-0.895,0.438-1.092,1.753-0.373,2.494l0.168,0.171l-0.245,0.358c-0.942,1.395-1.8,2.261-2.607,2.637
	c-0.333,0.156-0.661,0.16-0.953,0.018c-0.577-0.284-1.128-0.982-1.746-2.22c-0.292-0.577-0.811-1.826-0.975-2.337
	c-0.062-0.19-0.062-0.201,0-0.237c0.584-0.34,0.876-0.942,0.782-1.618c-0.099-0.687-0.599-1.205-1.198-1.234
	C0.436,692.796,0.275,692.811,0.184,692.84z"/>
<path d="M-5.341,707.359v0.84h5.843h5.842v-0.84v-0.841H0.502h-5.843V707.359z"/>
</svg>
