<?xml version="1.0" encoding="utf-8"?>
<!-- Generator: Adobe Illustrator 16.0.3, SVG Export Plug-In . SVG Version: 6.00 Build 0)  -->
<!DOCTYPE svg PUBLIC "-//W3C//DTD SVG 1.1 Basic//EN" "http://www.w3.org/Graphics/SVG/1.1/DTD/svg11-basic.dtd">
<svg version="1.1" baseProfile="basic" xmlns="http://www.w3.org/2000/svg" xmlns:xlink="http://www.w3.org/1999/xlink" x="0px"
	 y="0px" width="2355px" height="1570px" viewBox="0 0 2355 1570" xml:space="preserve">
<pattern  x="828" y="1135" width="5" height="5" patternUnits="userSpaceOnUse" id="New_Pattern" viewBox="0 -5 5 5" overflow="visible">
	<g>
		<polygon fill="none" points="0,-5 5,-5 5,0 0,0 		"/>
		<polygon fill="#242424" points="5,0 2.5,0 2.5,-2.5 5,-2.5 		"/>
		<polygon fill="#2B2B2B" points="2.5,0 0,0 0,-2.5 2.5,-2.5 		"/>
		<polygon fill="#2B2B2B" points="5,-2.5 2.5,-2.5 2.5,-5 5,-5 		"/>
		<polygon fill="#242424" points="2.5,-2.5 0,-2.5 0,-5 2.5,-5 		"/>
	</g>
</pattern>
<g id="bg">
	<rect id="background" fill="url(#New_Pattern)" width="2355" height="1570"/>
	<g id="titlebar">
		<rect fill="#1E1E1E" width="2355" height="18"/>
	</g>
</g>
<g id="vert_Lines">
	
		<line id="network_1_" fill="none" stroke="#8A4A00" stroke-width="3" stroke-miterlimit="10" x1="87.333" y1="1170.667" x2="87.333" y2="36.667"/>
	
		<line id="puzzles_1_" fill="none" stroke="#8A4A00" stroke-width="1.5861" stroke-miterlimit="10" x1="284.333" y1="309.667" x2="284.333" y2="-7.333"/>
	
		<line id="openGl" fill="none" stroke="#8A4A00" stroke-width="3" stroke-miterlimit="10" x1="482.333" y1="1170.667" x2="482.333" y2="36.667"/>
	
		<line id="math" fill="none" stroke="#8A4A00" stroke-width="2.6845" stroke-miterlimit="10" x1="1274.334" y1="944.667" x2="1274.334" y2="36.667"/>
	
		<line id="trueSpace" fill="none" stroke="#8A4A00" stroke-width="1.7051" stroke-miterlimit="10" x1="1472.334" y1="403" x2="1472.334" y2="36.667"/>
	
		<line id="C_x2B__x2B__2_" fill="none" stroke="#8A4A00" stroke-width="3.2318" stroke-miterlimit="10" x1="681.333" y1="1352.667" x2="681.333" y2="36.667"/>
	
		<line id="audioEng_1_" fill="none" stroke="#8A4A00" stroke-width="2.8807" stroke-miterlimit="10" x1="1077.333" y1="1082.25" x2="1077.333" y2="36.667"/>
	
		<line id="physics" fill="none" stroke="#8A4A00" stroke-width="2.4811" stroke-miterlimit="10" x1="1868.334" y1="812.335" x2="1868.334" y2="36.667"/>
</g>
<g id="horizontal_Lines">
	<g id="left">
		<g id="c_x2B__x2B_15_left">
			<path fill="none" stroke="#FFFFFF" stroke-width="3" stroke-miterlimit="10" d="M362,263.667c211.333,0,17.25-46,315.333-46"/>
			<polygon id="arrowHead_-_left" fill="#FFFFFF" stroke="#FFFFFF" stroke-width="3" stroke-miterlimit="10" points="
				369.125,269.698 357.076,262.742 369.125,255.786 			"/>
		</g>
		<g id="c_x2B__x2B_22_left">
			<path fill="none" stroke="#FFFFFF" stroke-width="3" stroke-miterlimit="10" d="M162.101,1031.742
				c445.899,0-27-45.075,527.334-45.075"/>
			<polygon id="arrowHead_-_left_1_" fill="#FFFFFF" stroke="#FFFFFF" stroke-width="3" stroke-miterlimit="10" points="
				171.125,1038.698 159.076,1031.742 171.125,1024.786 			"/>
		</g>
		<g id="c_x2B__x2B_23_left">
			<path fill="none" stroke="#FFFFFF" stroke-width="2.9749" stroke-miterlimit="10" d="M164.843,1121.742
				c456.043,0-32.137-45.075,516.491-45.075"/>
			<polygon id="arrowHead_-_left_9_" fill="#FFFFFF" stroke="#FFFFFF" stroke-width="3" stroke-miterlimit="10" points="
				171.125,1128.698 159.076,1121.742 171.125,1114.786 			"/>
		</g>
		<g id="gameDev45_left">
			<path fill="none" stroke="#FFFFFF" stroke-width="3" stroke-miterlimit="10" d="M560.767,674.667c200.899,0,18.231-46,315.333-46
				"/>
			<polygon id="arrowHead_-_left_4_" fill="#FFFFFF" stroke="#FFFFFF" stroke-width="3" stroke-miterlimit="10" points="
				565.125,680.698 553.076,673.742 565.125,666.786 			"/>
		</g>
		<g id="c_x2B__x2B_24_left">
			<path fill="none" stroke="#FFFFFF" stroke-width="3" stroke-miterlimit="10" d="M558.553,1163.833
				c76.947-16.5-13.886-42.091,122.615-42.091"/>
			<polygon id="arrowHead_-_left_3_" fill="#FFFFFF" stroke="#FFFFFF" stroke-width="3" stroke-miterlimit="10" points="
				564.467,1169.258 551.214,1165.023 561.507,1155.664 			"/>
		</g>
		<g id="math2_left">
			<path fill="none" stroke="#FFFFFF" stroke-width="3" stroke-miterlimit="10" d="M956.101,265.886
				c256.565-2.886-50.767-45.219,320.566-45.219"/>
			<polygon id="arrowHead_-_left_5_" fill="#FFFFFF" stroke="#FFFFFF" stroke-width="3" stroke-miterlimit="10" points="
				962.125,272.698 950.076,265.742 962.125,258.786 			"/>
		</g>
		<g id="math6_left">
			<path fill="none" stroke="#FFFFFF" stroke-width="3" stroke-miterlimit="10" d="M957.667,355.742
				c261.667-1.742-52.333-45.075,319-45.075"/>
			<polygon id="arrowHead_-_left_6_" fill="#FFFFFF" stroke="#FFFFFF" stroke-width="3" stroke-miterlimit="10" points="
				962.125,362.698 950.076,355.742 962.125,348.786 			"/>
		</g>
		<g id="truespace7_left">
			<path fill="none" stroke="#FFFFFF" stroke-width="3" stroke-miterlimit="10" d="M957.667,446.667c447.667,0-40.94-46,506.667-46"
				/>
			<polygon id="arrowHead_-_left_8_" fill="#FFFFFF" stroke="#FFFFFF" stroke-width="3" stroke-miterlimit="10" points="
				962.125,452.698 950.076,445.742 962.125,438.786 			"/>
		</g>
		<g id="math7_left">
			<path fill="none" stroke="#FFFFFF" stroke-width="3" stroke-miterlimit="10" d="M957.667,536.667c255,0-52.333-46,319-46"/>
			<polygon id="arrowHead_-_left_7_" fill="#FFFFFF" stroke="#FFFFFF" stroke-width="3" stroke-miterlimit="10" points="
				962.125,542.698 950.076,535.742 962.125,528.786 			"/>
		</g>
		<g id="physics_6c_left">
			<path fill="none" stroke="#FFFFFF" stroke-width="3" stroke-miterlimit="10" d="M1745,810.667c44.499,0,12.323-46,55.667-46"/>
			<polygon id="arrowHead_-_left_2_" fill="#FFFFFF" stroke="#FFFFFF" stroke-width="3" stroke-miterlimit="10" points="
				1753.125,816.698 1741.076,809.742 1753.125,802.786 			"/>
		</g>
	</g>
	<g id="right">
		<g id="math10_right">
			<path fill="none" stroke="#FFFFFF" stroke-width="2.9982" stroke-miterlimit="10" d="M1275.334,942.723
				c376,0,84.666,44.109,318.137,44.109"/>
			<polygon id="arrowHead_-_right" fill="#FFFFFF" stroke="#FFFFFF" stroke-width="2.9982" stroke-miterlimit="10" points="
				1587.446,993.779 1599.495,986.832 1587.446,979.884 			"/>
		</g>
		<g id="c_x2B__x2B_25_right">
			<path fill="none" stroke="#FFFFFF" stroke-width="3" stroke-miterlimit="10" d="M685.334,1262.723
				c1304.607,0,106.666,44.109,1304.607,44.109"/>
			<polygon id="arrowHead_-_right_1_" fill="#FFFFFF" stroke="#FFFFFF" stroke-width="2.9982" stroke-miterlimit="10" points="
				1981.446,1313.779 1993.495,1306.832 1981.446,1299.884 			"/>
		</g>
		<g id="c_x2B__x2B_17_right">
			<path fill="none" stroke="#FFFFFF" stroke-width="3" stroke-miterlimit="10" d="M685.334,898.723
				c323,0,90.333,44.109,317.027,44.109"/>
			<polygon id="arrowHead_-_right_2_" fill="#FFFFFF" stroke="#FFFFFF" stroke-width="2.9982" stroke-miterlimit="10" points="
				993.446,949.779 1005.495,942.832 993.446,935.884 			"/>
		</g>
		<g id="c_x2B__x2B_13_right">
			<path fill="none" stroke="#FFFFFF" stroke-width="3" stroke-miterlimit="10" d="M685.334,128.723
				c121.414,0,66.666,28.944,119.169,44.109"/>
			<polygon id="arrowHead_-_right_3_" fill="#FFFFFF" stroke="#FFFFFF" stroke-width="2.9982" stroke-miterlimit="10" points="
				793.835,175.957 807.284,172.411 797.478,162.547 			"/>
		</g>
		<g id="audioEng13_right">
			<path fill="none" stroke="#FFFFFF" stroke-width="3.8083" stroke-miterlimit="10" d="M1083.334,1078.723
				c520.497,0,145.565,44.109,510.873,44.109"/>
			<polygon id="arrowHead_-_right_4_" fill="#FFFFFF" stroke="#FFFFFF" stroke-width="2.9982" stroke-miterlimit="10" points="
				1588.446,1129.779 1600.495,1122.832 1588.446,1115.884 			"/>
		</g>
		<g id="physics_1a_right">
			<path fill="none" stroke="#FFFFFF" stroke-width="3" stroke-miterlimit="10" d="M946.334,628.723
				c860.947,0,240.778,44.109,845.027,44.109"/>
			<polygon id="arrowHead_-_right_5_" fill="#FFFFFF" stroke="#FFFFFF" stroke-width="2.9982" stroke-miterlimit="10" points="
				1786.446,679.779 1798.495,672.832 1786.446,665.884 			"/>
		</g>
	</g>
</g>
<g id="boxes">
	<g id="network">
		<rect x="19.333" y="20.667" fill="#09628A" stroke="#000000" stroke-miterlimit="10" width="136" height="32"/>
		<rect x="19.333" y="1017.667" fill="#09628A" stroke="#000000" stroke-miterlimit="10" width="136" height="32"/>
		<rect x="19.333" y="1062.667" fill="#09628A" stroke="#000000" stroke-miterlimit="10" width="136" height="32"/>
		<rect x="19.333" y="1107.667" fill="#09628A" stroke="#000000" stroke-miterlimit="10" width="136" height="32"/>
		<rect x="19.333" y="1154.667" fill="#09628A" stroke="#000000" stroke-miterlimit="10" width="136" height="32"/>
	</g>
	<g id="Puzzles">
		<rect x="217.333" y="20.667" fill="#09628A" stroke="#000000" stroke-miterlimit="10" width="136" height="32"/>
		<rect x="217.333" y="247.667" fill="#09628A" stroke="#000000" stroke-miterlimit="10" width="136" height="32"/>
		<rect x="217.333" y="293.667" fill="#09628A" stroke="#000000" stroke-miterlimit="10" width="136" height="32"/>
	</g>
	<g id="openGl_1_">
		<rect x="414.333" y="20.667" fill="#09628A" stroke="#000000" stroke-miterlimit="10" width="136" height="32"/>
		<rect x="414.333" y="658.667" fill="#09628A" stroke="#000000" stroke-miterlimit="10" width="136" height="32"/>
		<rect x="414.333" y="703.667" fill="#09628A" stroke="#000000" stroke-miterlimit="10" width="136" height="32"/>
		<rect x="414.333" y="1152.667" fill="#09628A" stroke="#000000" stroke-miterlimit="10" width="136" height="32"/>
	</g>
	<g id="math_1_">
		<rect x="1207.334" y="20.667" fill="#09628A" stroke="#000000" stroke-miterlimit="10" width="136" height="32"/>
		<rect x="1207.334" y="203.667" fill="#09628A" stroke="#000000" stroke-miterlimit="10" width="136" height="32"/>
		<rect x="1207.334" y="250.667" fill="#09628A" stroke="#000000" stroke-miterlimit="10" width="136" height="32"/>
		<rect x="1207.334" y="295.667" fill="#09628A" stroke="#000000" stroke-miterlimit="10" width="136" height="32"/>
		<rect x="1207.334" y="474.667" fill="#09628A" stroke="#000000" stroke-miterlimit="10" width="136" height="32"/>
		<rect x="1207.334" y="519.667" fill="#09628A" stroke="#000000" stroke-miterlimit="10" width="136" height="32"/>
		<rect x="1207.334" y="926.667" fill="#09628A" stroke="#000000" stroke-miterlimit="10" width="136" height="32"/>
	</g>
	<g id="trueSpace_1_">
		<rect x="1405.334" y="20.667" fill="#09628A" stroke="#000000" stroke-miterlimit="10" width="136" height="32"/>
		<rect x="1405.334" y="65.667" fill="#09628A" stroke="#000000" stroke-miterlimit="10" width="136" height="32"/>
		<rect x="1405.334" y="385.667" fill="#09628A" stroke="#000000" stroke-miterlimit="10" width="136" height="32"/>
	</g>
	<g id="C_x2B__x2B__1_">
		<rect x="613.333" y="20.667" fill="#09628A" stroke="#000000" stroke-miterlimit="10" width="136" height="32"/>
		<rect x="613.333" y="65.667" fill="#09628A" stroke="#000000" stroke-miterlimit="10" width="136" height="32"/>
		<rect x="613.333" y="112.667" fill="#09628A" stroke="#000000" stroke-miterlimit="10" width="136" height="32"/>
		<rect x="613.333" y="157.667" fill="#09628A" stroke="#000000" stroke-miterlimit="10" width="136" height="32"/>
		<rect x="613.333" y="202.667" fill="#09628A" stroke="#000000" stroke-miterlimit="10" width="136" height="32"/>
		<rect x="613.333" y="837.667" fill="#09628A" stroke="#000000" stroke-miterlimit="10" width="136" height="32"/>
		<rect x="613.333" y="882.667" fill="#09628A" stroke="#000000" stroke-miterlimit="10" width="136" height="32"/>
		<rect x="613.333" y="927.667" fill="#09628A" stroke="#000000" stroke-miterlimit="10" width="136" height="32"/>
		<rect x="613.333" y="972.667" fill="#09628A" stroke="#000000" stroke-miterlimit="10" width="136" height="32"/>
		<rect x="613.333" y="1062.667" fill="#09628A" stroke="#000000" stroke-miterlimit="10" width="136" height="32"/>
		<rect x="613.333" y="1107.667" fill="#09628A" stroke="#000000" stroke-miterlimit="10" width="136" height="32"/>
		<rect x="613.333" y="1246.667" fill="#09628A" stroke="#000000" stroke-miterlimit="10" width="136" height="32"/>
		<rect x="613.333" y="1291.667" fill="#09628A" stroke="#000000" stroke-miterlimit="10" width="136" height="32"/>
		<rect x="613.333" y="1336.667" fill="#09628A" stroke="#000000" stroke-miterlimit="10" width="136" height="32"/>
	</g>
	<g id="audioEng_2_">
		<rect x="1009.333" y="20.667" fill="#09628A" stroke="#000000" stroke-miterlimit="10" width="136" height="32"/>
		<rect x="1009.333" y="927.667" fill="#09628A" stroke="#000000" stroke-miterlimit="10" width="136" height="32"/>
		<rect x="1009.333" y="995.667" fill="#09628A" stroke="#000000" stroke-miterlimit="10" width="136" height="32"/>
		<rect x="1009.333" y="1063.667" fill="#09628A" stroke="#000000" stroke-miterlimit="10" width="136" height="32"/>
	</g>
	<g id="physics_1_">
		<rect x="1800.334" y="20.667" fill="#09628A" stroke="#000000" stroke-miterlimit="10" width="136" height="32"/>
		<rect x="1800.334" y="659.667" fill="#09628A" stroke="#000000" stroke-miterlimit="10" width="136" height="32"/>
		<rect x="1800.334" y="702.667" fill="#09628A" stroke="#000000" stroke-miterlimit="10" width="136" height="32"/>
		<rect x="1800.334" y="748.667" fill="#09628A" stroke="#000000" stroke-miterlimit="10" width="136" height="32"/>
		<rect x="1800.334" y="792.667" fill="#09628A" stroke="#000000" stroke-miterlimit="10" width="136" height="32"/>
	</g>
</g>
<g id="text">
	<g id="network_2_">
		<text transform="matrix(1 0 0 1 30.6665 12.3335)" fill="#FFFFFF" font-family="'MyriadPro-Regular'" font-size="12">Network Programming</text>
		<text transform="matrix(1 0 0 1 25.6665 41.3335)" fill="#FFFFFF" font-family="'MyriadPro-Regular'" font-size="18">0: Introduction</text>
		<text transform="matrix(1 0 0 1 30.6665 1038.334)" fill="#FFFFFF" font-family="'MyriadPro-Regular'" font-size="18">1: Setup</text>
		<g id="_x32_-_x3E_19">
			<text transform="matrix(1 0 0 1 30.6665 1085.334)" fill="#FFFFFF" font-family="'MyriadPro-Regular'" font-size="18">2</text>
			
				<line fill="none" stroke="#FFFFFF" stroke-width="3" stroke-miterlimit="10" x1="46.667" y1="1078.667" x2="80.333" y2="1078.667"/>
			<polygon fill="#FFFFFF" points="92,1078.667 79.952,1085.623 79.952,1071.711 			"/>
			<text transform="matrix(1 0 0 1 94.6665 1085.334)" fill="#FFFFFF" font-family="'MyriadPro-Regular'" font-size="18">19</text>
		</g>
		<g id="_x32_0">
			<text transform="matrix(1 0 0 1 25.6665 1122.334)"><tspan x="0" y="0" fill="#FFFFFF" font-family="'MyriadPro-Regular'" font-size="16">20: Bitfield Game </tspan><tspan x="0" y="14" fill="#FFFFFF" font-family="'MyriadPro-Regular'" font-size="16">       Data Packet</tspan></text>
		</g>
		<text transform="matrix(1 0 0 1 25.6665 1175.334)" fill="#FFFFFF" font-family="'MyriadPro-Regular'" font-size="16">21: Chatter Demo</text>
	</g>
	<g id="puzzles">
		<text transform="matrix(1 0 0 1 232.6665 12.3335)" fill="#FFFFFF" font-family="'MyriadPro-Regular'" font-size="12">Puzzles &amp; Challenges</text>
		<text transform="matrix(1 0 0 1 225.6665 41.3335)" fill="#FFFFFF" font-family="'MyriadPro-Regular'" font-size="18">0: Introduction</text>
		<text transform="matrix(1 0 0 1 223.6665 270.3335)" fill="#FFFFFF" font-family="'MyriadPro-Regular'" font-size="16">1a: The 3x3 Puzzle</text>
		<g id="_x31_b-_x3E__1c">
			<text transform="matrix(1 0 0 1 223.6665 315.3257)" fill="#FFFFFF" font-family="'MyriadPro-Regular'" font-size="18">1b</text>
			
				<line fill="none" stroke="#FFFFFF" stroke-width="3" stroke-miterlimit="10" x1="249.667" y1="308.66" x2="283.333" y2="308.66"/>
			<polygon fill="#FFFFFF" points="295,308.66 282.952,315.616 282.952,301.704 			"/>
			<text transform="matrix(1 0 0 1 297.6665 315.3257)" fill="#FFFFFF" font-family="'MyriadPro-Regular'" font-size="18">1c</text>
		</g>
	</g>
	<g id="OpenGL_Tips">
		<text transform="matrix(1 0 0 1 431.6665 12.3335)" fill="#FFFFFF" font-family="'MyriadPro-Regular'" font-size="12">OpenGL Tips &amp; Tricks</text>
		<text transform="matrix(1 0 0 1 422.6665 41.3335)" fill="#FFFFFF" font-family="'MyriadPro-Regular'" font-size="18">0: Introduction</text>
		<text transform="matrix(1 0 0 1 418.6665 680.3335)" fill="#FFFFFF" font-family="'MyriadPro-Regular'" font-size="18">1ab: Sprites</text>
		<g id="_x2D__x3E_">
			<text transform="matrix(1 0 0 1 418.6665 725.3335)" fill="#FFFFFF" font-family="'MyriadPro-Regular'" font-size="18">1cd</text>
			
				<line fill="none" stroke="#FFFFFF" stroke-width="3" stroke-miterlimit="10" x1="451.715" y1="719.667" x2="485.382" y2="719.667"/>
			<polygon fill="#FFFFFF" points="497.048,719.667 485,726.623 485,712.711 			"/>
			<text transform="matrix(1 0 0 1 502.6665 725.3335)" fill="#FFFFFF" font-family="'MyriadPro-Regular'" font-size="18">1ef</text>
		</g>
		<text transform="matrix(1 0 0 1 418.6665 1174.334)" fill="#FFFFFF" font-family="'MyriadPro-Regular'" font-size="18">2: PNG Textures</text>
	</g>
	<g id="math_2_">
		<text transform="matrix(1 0 0 1 1241.666 12.3335)" fill="#FFFFFF" font-family="'MyriadPro-Regular'" font-size="12">Mathematics</text>
		<text transform="matrix(1 0 0 1 1212.666 41.3335)" fill="#FFFFFF" font-family="'MyriadPro-Regular'" font-size="18">1: Lines in 2D</text>
		<text transform="matrix(1 0 0 1 1212.666 226.3335)" fill="#FFFFFF" font-family="'MyriadPro-Regular'" font-size="18">2: Parabolas</text>
		<g id="_x2D__x3E__copy">
			<text transform="matrix(1 0 0 1 1213.666 273.3335)" fill="#FFFFFF" font-family="'MyriadPro-Regular'" font-size="18">3</text>
			
				<line fill="none" stroke="#FFFFFF" stroke-width="3" stroke-miterlimit="10" x1="1231.715" y1="267.667" x2="1265.382" y2="267.667"/>
			<polygon fill="#FFFFFF" points="1277.049,267.667 1265,274.623 1265,260.711 			"/>
			<text transform="matrix(1 0 0 1 1282.666 273.3335)" fill="#FFFFFF" font-family="'MyriadPro-Regular'" font-size="18">5</text>
		</g>
		<text transform="matrix(1 0 0 1 1212.666 316.3335)" fill="#FFFFFF" font-family="'MyriadPro-Regular'" font-size="18">6: Unit Circle</text>
		<text transform="matrix(1 0 0 1 1212.666 496.3335)" fill="#FFFFFF" font-family="'MyriadPro-Regular'" font-size="18">7: Dot Product</text>
		<g id="_x2D__x3E__copy_2">
			<text transform="matrix(1 0 0 1 1213.666 542.3335)" fill="#FFFFFF" font-family="'MyriadPro-Regular'" font-size="18">8</text>
			
				<line fill="none" stroke="#FFFFFF" stroke-width="3" stroke-miterlimit="10" x1="1231.715" y1="536.667" x2="1265.382" y2="536.667"/>
			<polygon fill="#FFFFFF" points="1277.049,536.667 1265,543.623 1265,529.711 			"/>
			<text transform="matrix(1 0 0 1 1282.666 542.3335)" fill="#FFFFFF" font-family="'MyriadPro-Regular'" font-size="18">9</text>
		</g>
		<text transform="matrix(1 0 0 1 1212.666 939.334)"><tspan x="0" y="0" fill="#FFFFFF" font-family="'MyriadPro-Regular'" font-size="16">10: Smooth </tspan><tspan x="0" y="16" fill="#FFFFFF" font-family="'MyriadPro-Regular'" font-size="16">       Interpolation</tspan></text>
	</g>
	<g id="trueSpace_2_">
		<text transform="matrix(1 0 0 1 1426.666 12.3335)" fill="#FFFFFF" font-family="'MyriadPro-Regular'" font-size="12">Caligari trueSpace</text>
		<text transform="matrix(1 0 0 1 1410.666 41.3335)" fill="#FFFFFF" font-family="'MyriadPro-Regular'" font-size="18">1: Introduction</text>
		<g id="_x2D__x3E__copy_3">
			<text transform="matrix(1 0 0 1 1412.666 86.3335)" fill="#FFFFFF" font-family="'MyriadPro-Regular'" font-size="18">2</text>
			
				<line fill="none" stroke="#FFFFFF" stroke-width="3" stroke-miterlimit="10" x1="1430.715" y1="80.667" x2="1464.382" y2="80.667"/>
			<polygon fill="#FFFFFF" points="1476.049,80.667 1464,87.623 1464,73.711 			"/>
			<text transform="matrix(1 0 0 1 1481.666 86.3335)" fill="#FFFFFF" font-family="'MyriadPro-Regular'" font-size="18">6</text>
		</g>
		<text transform="matrix(1 0 0 1 1410.666 398.3335)"><tspan x="0" y="0" fill="#FFFFFF" font-family="'MyriadPro-Regular'" font-size="16">7: Texturing</tspan><tspan x="0" y="16" fill="#FFFFFF" font-family="'MyriadPro-Regular'" font-size="16">    Objects</tspan></text>
	</g>
	<g id="C_x2B__x2B_">
		<text transform="matrix(1 0 0 1 649.6665 12.3335)" fill="#FFFFFF" font-family="'MyriadPro-Regular'" font-size="12">General C++</text>
		<text transform="matrix(1 0 0 1 623.6665 34.3335)"><tspan x="0" y="0" fill="#FFFFFF" font-family="'MyriadPro-Regular'" font-size="16">1: Number </tspan><tspan x="0" y="14" fill="#FFFFFF" font-family="'MyriadPro-Regular'" font-size="16">    Systems</tspan></text>
		<g id="_x2D__x3E__copy_4">
			<text transform="matrix(1 0 0 1 623.6665 86.3335)" fill="#FFFFFF" font-family="'MyriadPro-Regular'" font-size="18">2</text>
			
				<line fill="none" stroke="#FFFFFF" stroke-width="3" stroke-miterlimit="10" x1="638.715" y1="80.667" x2="672.382" y2="80.667"/>
			<polygon fill="#FFFFFF" points="684.048,80.667 672,87.623 672,73.711 			"/>
			<text transform="matrix(1 0 0 1 689.6665 86.3335)" fill="#FFFFFF" font-family="'MyriadPro-Regular'" font-size="18">12</text>
		</g>
		<text transform="matrix(1 0 0 1 623.6665 126.3335)"><tspan x="0" y="0" fill="#FFFFFF" font-family="'MyriadPro-Regular'" font-size="16">13: Visual C++</tspan><tspan x="0" y="14" fill="#FFFFFF" font-family="'MyriadPro-Regular'" font-size="16">      Debugger</tspan></text>
		<text transform="matrix(1 0 0 1 623.6665 179.3335)" fill="#FFFFFF" font-family="'MyriadPro-Regular'" font-size="18">14: Templates</text>
		<text transform="matrix(1 0 0 1 623.6665 224.3335)" fill="#FFFFFF" font-family="'MyriadPro-Regular'" font-size="18">15: Threads</text>
		<text transform="matrix(1 0 0 1 623.6665 852.334)"><tspan x="0" y="0" fill="#FFFFFF" font-family="'MyriadPro-Regular'" font-size="16">16: Random</tspan><tspan x="0" y="14" fill="#FFFFFF" font-family="'MyriadPro-Regular'" font-size="16">      Numbers</tspan></text>
		<text transform="matrix(1 0 0 1 623.6665 897.334)"><tspan x="0" y="0" fill="#FFFFFF" font-family="'MyriadPro-Regular'" font-size="16">17: zLib</tspan><tspan x="0" y="14" fill="#FFFFFF" font-family="'MyriadPro-Regular'" font-size="16">      Compression</tspan></text>
		<g id="_x2D__x3E__copy_5">
			<text transform="matrix(1 0 0 1 623.6665 948.334)" fill="#FFFFFF" font-family="'MyriadPro-Regular'" font-size="18">18</text>
			
				<line fill="none" stroke="#FFFFFF" stroke-width="3" stroke-miterlimit="10" x1="648.715" y1="942.667" x2="682.382" y2="942.667"/>
			<polygon fill="#FFFFFF" points="694.048,942.667 682,949.623 682,935.711 			"/>
			<text transform="matrix(1 0 0 1 699.6665 948.334)" fill="#FFFFFF" font-family="'MyriadPro-Regular'" font-size="18">21</text>
		</g>
		<text transform="matrix(1 0 0 1 623.6665 993.334)" fill="#FFFFFF" font-family="'MyriadPro-Regular'" font-size="18">22: i++ vs ++i</text>
		<text transform="matrix(1 0 0 1 623.6665 1083.334)" fill="#FFFFFF" font-family="'MyriadPro-Regular'" font-size="18">23: Bit Fields</text>
		<text transform="matrix(1 0 0 1 623.6665 1128.334)" fill="#FFFFFF" font-family="'MyriadPro-Regular'" font-size="18">24: PNG Loader</text>
		<text transform="matrix(1 0 0 1 623.6665 1267.334)" fill="#FFFFFF" font-family="'MyriadPro-Regular'" font-size="18">25: Exceptions</text>
		<text transform="matrix(1 0 0 1 623.6665 1306.334)"><tspan x="0" y="0" fill="#FFFFFF" font-family="'MyriadPro-Regular'" font-size="16">26: Console</tspan><tspan x="0" y="14" fill="#FFFFFF" font-family="'MyriadPro-Regular'" font-size="16">      Colors</tspan></text>
		<text transform="matrix(1 0 0 1 623.6665 1351.334)"><tspan x="0" y="0" fill="#FFFFFF" font-family="'MyriadPro-Regular'" font-size="16">27: Virtual</tspan><tspan x="0" y="14" fill="#FFFFFF" font-family="'MyriadPro-Regular'" font-size="16">      Destructor</tspan></text>
	</g>
	<g id="audioEng">
		<text transform="matrix(1 0 0 1 1010.6665 12.3335)" fill="#FFFFFF" font-family="'MyriadPro-Regular'" font-size="12">3D Audio Engine (OpenAL)</text>
		<text transform="matrix(1 0 0 1 1020.6665 41.3335)" fill="#FFFFFF" font-family="'MyriadPro-Regular'" font-size="18">0: Introduction</text>
		<text transform="matrix(1 0 0 1 1020.6665 947.334)" fill="#FFFFFF" font-family="'MyriadPro-Regular'" font-size="16">1: Setup &amp; Play</text>
		<g id="_x31_b-_x3E__1c_copy">
			<text transform="matrix(1 0 0 1 1020.6665 1017.3262)" fill="#FFFFFF" font-family="'MyriadPro-Regular'" font-size="18">2</text>
			
				<line fill="none" stroke="#FFFFFF" stroke-width="3" stroke-miterlimit="10" x1="1036.667" y1="1010.66" x2="1070.333" y2="1010.66"/>
			<polygon fill="#FFFFFF" points="1082,1010.66 1069.952,1017.615 1069.952,1003.703 			"/>
			<text transform="matrix(1 0 0 1 1085.6665 1017.3262)" fill="#FFFFFF" font-family="'MyriadPro-Regular'" font-size="18">12</text>
		</g>
		<text transform="matrix(1 0 0 1 1012.6665 1084.334)" fill="#FFFFFF" font-family="'MyriadPro-Regular'" font-size="16">13: Error Checking</text>
	</g>
	<g id="physics_2_">
		<text transform="matrix(1 0 0 1 1830.666 12.3335)" fill="#FFFFFF" font-family="'MyriadPro-Regular'" font-size="12">Physics Engine</text>
		<text transform="matrix(1 0 0 1 1812.666 41.3335)" fill="#FFFFFF" font-family="'MyriadPro-Regular'" font-size="18">0: Introduction</text>
		<text transform="matrix(1 0 0 1 1805.666 674.3335)"><tspan x="0" y="0" fill="#FFFFFF" font-family="'MyriadPro-Regular'" font-size="14">1a: Disable Vertical</tspan><tspan x="0" y="14" fill="#FFFFFF" font-family="'MyriadPro-Regular'" font-size="14">Synchronization</tspan></text>
		<g id="_x31_b_-_x3E__6b">
			<text transform="matrix(1 0 0 1 1806.666 725.3335)" fill="#FFFFFF" font-family="'MyriadPro-Regular'" font-size="18">1b</text>
			
				<line fill="none" stroke="#FFFFFF" stroke-width="3" stroke-miterlimit="10" x1="1830.715" y1="719.667" x2="1864.382" y2="719.667"/>
			<polygon fill="#FFFFFF" points="1876.049,719.667 1864,726.623 1864,712.711 			"/>
			<text transform="matrix(1 0 0 1 1880.666 725.3335)" fill="#FFFFFF" font-family="'MyriadPro-Regular'" font-size="18">6b</text>
		</g>
		<text transform="matrix(1 0 0 1 1805.666 763.3335)"><tspan x="0" y="0" fill="#FFFFFF" font-family="'MyriadPro-Regular'" font-size="14">6c: Using Euler</tspan><tspan x="0" y="14" fill="#FFFFFF" font-family="'MyriadPro-Regular'" font-size="14">Integrator</tspan></text>
		<g id="_x37__-_x3E__14">
			<text transform="matrix(1 0 0 1 1812.666 815.334)" fill="#FFFFFF" font-family="'MyriadPro-Regular'" font-size="18">7</text>
			
				<line fill="none" stroke="#FFFFFF" stroke-width="3" stroke-miterlimit="10" x1="1830.715" y1="809.667" x2="1864.382" y2="809.667"/>
			<polygon fill="#FFFFFF" points="1876.049,809.667 1864,816.623 1864,802.711 			"/>
			<text transform="matrix(1 0 0 1 1880.666 815.334)" fill="#FFFFFF" font-family="'MyriadPro-Regular'" font-size="18">14</text>
		</g>
	</g>
</g>
<g id="Layer_1" display="none">
	
		<image display="inline" overflow="visible" opacity="0.7" width="2355" height="1570" xlink:href="../../../master/marekKnows/viewingOrder.png" >
	</image>
</g>
</svg>
