<?xml version="1.0" encoding="utf-8"?>
<!-- Generator: Adobe Illustrator 16.0.3, SVG Export Plug-In . SVG Version: 6.00 Build 0)  -->
<!DOCTYPE svg PUBLIC "-//W3C//DTD SVG 1.1 Basic//EN" "http://www.w3.org/Graphics/SVG/1.1/DTD/svg11-basic.dtd">
<svg version="1.1" baseProfile="basic" xmlns="http://www.w3.org/2000/svg" xmlns:xlink="http://www.w3.org/1999/xlink" x="0px"
	 y="0px" width="2355px" height="1570px" viewBox="0 0 2355 1570" xml:space="preserve">
<pattern  x="828" y="1135" width="5" height="5" patternUnits="userSpaceOnUse" id="New_Pattern" viewBox="0 -5 5 5" overflow="visible">
	<g>
		<polygon fill="none" points="0,-5 5,-5 5,0 0,0 		"/>
		<polygon fill="#242424" points="5,0 2.5,0 2.5,-2.5 5,-2.5 		"/>
		<polygon fill="#2B2B2B" points="2.5,0 0,0 0,-2.5 2.5,-2.5 		"/>
		<polygon fill="#2B2B2B" points="5,-2.5 2.5,-2.5 2.5,-5 5,-5 		"/>
		<polygon fill="#242424" points="2.5,-2.5 0,-2.5 0,-5 2.5,-5 		"/>
	</g>
</pattern>
<g id="bg">
	<rect id="background" fill="url(#New_Pattern)" width="2355" height="1570"/>
	<g id="titlebar">
		<rect fill="#1E1E1E" width="2355" height="18"/>
	</g>
</g>
<g id="vert_Lines">
	
		<line id="network_1_" display="none" fill="none" stroke="#8A4A00" stroke-width="3" stroke-miterlimit="10" x1="87.333" y1="1170.667" x2="87.333" y2="36.667"/>
	
		<line id="puzzles_1_" fill="none" stroke="#8A4A00" stroke-width="1.5862" stroke-miterlimit="10" x1="284.333" y1="309.667" x2="284.333" y2="-7.333"/>
	
		<line id="openGl" fill="none" stroke="#8A4A00" stroke-width="3" stroke-miterlimit="10" x1="482.333" y1="1170.667" x2="482.333" y2="36.667"/>
	
		<line id="math" fill="none" stroke="#8A4A00" stroke-width="2.6845" stroke-miterlimit="10" x1="1274.334" y1="944.667" x2="1274.334" y2="36.667"/>
	
		<line id="trueSpace" fill="none" stroke="#8A4A00" stroke-width="1.7051" stroke-miterlimit="10" x1="1472.334" y1="403" x2="1472.334" y2="36.667"/>
</g>
<g id="horizontal_Lines">
	<g id="left">
		<path fill="none" stroke="#FFFFFF" stroke-width="3" stroke-miterlimit="10" d="M362,263.667c211.333,0,17.25-46,315.333-46"/>
		<polygon id="arrowHead_-_left" fill="#FFFFFF" stroke="#FFFFFF" stroke-width="3" stroke-miterlimit="10" points="
			369.125,269.698 357.076,262.742 369.125,255.786 		"/>
	</g>
	<g id="left_copy" display="none">
		<path display="inline" fill="none" stroke="#FFFFFF" stroke-width="3.6773" stroke-miterlimit="10" d="M87.333,1032.667
			c564.951,0,36.061-46,594-46"/>
		
			<polygon id="arrowHead_-_left_1_" display="inline" fill="#FFFFFF" stroke="#FFFFFF" stroke-width="3" stroke-miterlimit="10" points="
			168.125,1038.698 156.076,1031.742 168.125,1024.786 		"/>
	</g>
	<g id="left_copy_2" display="none">
		<path display="inline" fill="none" stroke="#FFFFFF" stroke-width="3.6773" stroke-miterlimit="10" d="M87.333,1122.667
			c564.951,0,36.061-46,594-46"/>
		
			<polygon id="arrowHead_-_left_2_" display="inline" fill="#FFFFFF" stroke="#FFFFFF" stroke-width="3" stroke-miterlimit="10" points="
			168.125,1128.698 156.076,1121.742 168.125,1114.786 		"/>
	</g>
	<g id="left_copy_4">
		<path fill="none" stroke="#FFFFFF" stroke-width="3" stroke-miterlimit="10" d="M560.767,674.667c200.899,0,18.231-46,315.333-46"
			/>
		<polygon id="arrowHead_-_left_4_" fill="#FFFFFF" stroke="#FFFFFF" stroke-width="3" stroke-miterlimit="10" points="
			565.125,680.698 553.076,673.742 565.125,666.786 		"/>
	</g>
	<g id="left_copy_3">
		<path fill="none" stroke="#FFFFFF" stroke-width="2.0807" stroke-miterlimit="10" d="M558.553,1163.833
			c76.947-16.5-13.886-42.091,122.615-42.091"/>
		<polygon id="arrowHead_-_left_3_" fill="#FFFFFF" stroke="#FFFFFF" stroke-width="3" stroke-miterlimit="10" points="
			564.467,1169.258 551.214,1165.023 561.507,1155.664 		"/>
	</g>
	<g id="left_copy_5">
		<path fill="none" stroke="#FFFFFF" stroke-width="3" stroke-miterlimit="10" d="M956.101,265.886
			c256.565-2.886-50.767-45.219,320.566-45.219"/>
		<polygon id="arrowHead_-_left_5_" fill="#FFFFFF" stroke="#FFFFFF" stroke-width="3" stroke-miterlimit="10" points="
			962.125,272.698 950.076,265.742 962.125,258.786 		"/>
	</g>
	<g id="left_copy_6">
		<path fill="none" stroke="#FFFFFF" stroke-width="3" stroke-miterlimit="10" d="M957.667,355.742
			c261.667-1.742-52.333-45.075,319-45.075"/>
		<polygon id="arrowHead_-_left_6_" fill="#FFFFFF" stroke="#FFFFFF" stroke-width="3" stroke-miterlimit="10" points="
			962.125,362.698 950.076,355.742 962.125,348.786 		"/>
	</g>
	<g id="left_copy_8">
		<path fill="none" stroke="#FFFFFF" stroke-width="3.6431" stroke-miterlimit="10" d="M957.667,446.667
			c447.667,0-40.94-46,506.667-46"/>
		<polygon id="arrowHead_-_left_8_" fill="#FFFFFF" stroke="#FFFFFF" stroke-width="3" stroke-miterlimit="10" points="
			962.125,452.698 950.076,445.742 962.125,438.786 		"/>
	</g>
	<g id="left_copy_7">
		<path fill="none" stroke="#FFFFFF" stroke-width="3" stroke-miterlimit="10" d="M957.667,536.667c255,0-52.333-46,319-46"/>
		<polygon id="arrowHead_-_left_7_" fill="#FFFFFF" stroke="#FFFFFF" stroke-width="3" stroke-miterlimit="10" points="
			962.125,542.698 950.076,535.742 962.125,528.786 		"/>
	</g>
	<g id="right">
		<path fill="none" stroke="#FFFFFF" stroke-width="2.9982" stroke-miterlimit="10" d="M1275.334,942.723
			c376,0,84.666,44.109,318.137,44.109"/>
		<polygon id="arrowHead_-_right" fill="#FFFFFF" stroke="#FFFFFF" stroke-width="2.9982" stroke-miterlimit="10" points="
			1587.446,993.779 1599.495,986.832 1587.446,979.884 		"/>
	</g>
</g>
<g id="boxes">
	<g id="network" display="none">
		<rect x="19.333" y="20.667" display="inline" fill="#09628A" stroke="#000000" stroke-miterlimit="10" width="136" height="32"/>
		
			<rect x="19.333" y="1017.667" display="inline" fill="#09628A" stroke="#000000" stroke-miterlimit="10" width="136" height="32"/>
		
			<rect x="19.333" y="1062.667" display="inline" fill="#09628A" stroke="#000000" stroke-miterlimit="10" width="136" height="32"/>
		
			<rect x="19.333" y="1107.667" display="inline" fill="#09628A" stroke="#000000" stroke-miterlimit="10" width="136" height="32"/>
		
			<rect x="19.333" y="1154.667" display="inline" fill="#09628A" stroke="#000000" stroke-miterlimit="10" width="136" height="32"/>
	</g>
	<g id="Puzzles">
		<rect x="217.333" y="20.667" fill="#09628A" stroke="#000000" stroke-miterlimit="10" width="136" height="32"/>
		<rect x="217.333" y="247.667" fill="#09628A" stroke="#000000" stroke-miterlimit="10" width="136" height="32"/>
		<rect x="217.333" y="293.667" fill="#09628A" stroke="#000000" stroke-miterlimit="10" width="136" height="32"/>
	</g>
	<g id="openGl_1_">
		<rect x="414.333" y="20.667" fill="#09628A" stroke="#000000" stroke-miterlimit="10" width="136" height="32"/>
		<rect x="414.333" y="658.667" fill="#09628A" stroke="#000000" stroke-miterlimit="10" width="136" height="32"/>
		<rect x="414.333" y="703.667" fill="#09628A" stroke="#000000" stroke-miterlimit="10" width="136" height="32"/>
		<rect x="414.333" y="1152.667" fill="#09628A" stroke="#000000" stroke-miterlimit="10" width="136" height="32"/>
	</g>
	<g id="math_1_">
		<rect x="1207.334" y="20.667" fill="#09628A" stroke="#000000" stroke-miterlimit="10" width="136" height="32"/>
		<rect x="1207.334" y="203.667" fill="#09628A" stroke="#000000" stroke-miterlimit="10" width="136" height="32"/>
		<rect x="1207.334" y="250.667" fill="#09628A" stroke="#000000" stroke-miterlimit="10" width="136" height="32"/>
		<rect x="1207.334" y="295.667" fill="#09628A" stroke="#000000" stroke-miterlimit="10" width="136" height="32"/>
		<rect x="1207.334" y="474.667" fill="#09628A" stroke="#000000" stroke-miterlimit="10" width="136" height="32"/>
		<rect x="1207.334" y="519.667" fill="#09628A" stroke="#000000" stroke-miterlimit="10" width="136" height="32"/>
		<rect x="1207.334" y="926.667" fill="#09628A" stroke="#000000" stroke-miterlimit="10" width="136" height="32"/>
	</g>
	<g id="trueSpace_1_">
		<rect x="1405.334" y="20.667" fill="#09628A" stroke="#000000" stroke-miterlimit="10" width="136" height="32"/>
		<rect x="1405.334" y="65.667" fill="#09628A" stroke="#000000" stroke-miterlimit="10" width="136" height="32"/>
		<rect x="1405.334" y="385.667" fill="#09628A" stroke="#000000" stroke-miterlimit="10" width="136" height="32"/>
	</g>
</g>
<g id="text">
	<g id="network_2_" display="none">
		
			<text transform="matrix(1 0 0 1 30.6665 12.3335)" display="inline" fill="#FFFFFF" font-family="'MyriadPro-Regular'" font-size="12">Network Programming</text>
		
			<text transform="matrix(1 0 0 1 25.6665 41.3335)" display="inline" fill="#FFFFFF" font-family="'MyriadPro-Regular'" font-size="18">0: Introduction</text>
		
			<text transform="matrix(1 0 0 1 25.6665 1038.334)" display="inline" fill="#FFFFFF" font-family="'MyriadPro-Regular'" font-size="18">1: Setup</text>
		<g id="_x32_-_x3E_19" display="inline">
			<text transform="matrix(1 0 0 1 25.6665 1085.334)" fill="#FFFFFF" font-family="'MyriadPro-Regular'" font-size="18">2</text>
			
				<line fill="none" stroke="#FFFFFF" stroke-width="3" stroke-miterlimit="10" x1="41.667" y1="1078.667" x2="75.333" y2="1078.667"/>
			<polygon fill="#FFFFFF" points="87,1078.667 74.952,1085.623 74.952,1071.711 			"/>
			<text transform="matrix(1 0 0 1 89.6665 1085.334)" fill="#FFFFFF" font-family="'MyriadPro-Regular'" font-size="18">19</text>
		</g>
		<g id="_x32_0" display="inline">
			<text transform="matrix(1 0 0 1 25.6665 1122.334)"><tspan x="0" y="0" fill="#FFFFFF" font-family="'MyriadPro-Regular'" font-size="16">20: Bitfield Game </tspan><tspan x="0" y="14" fill="#FFFFFF" font-family="'MyriadPro-Regular'" font-size="16">       Data Packet</tspan></text>
		</g>
		
			<text transform="matrix(1 0 0 1 25.6665 1175.334)" display="inline" fill="#FFFFFF" font-family="'MyriadPro-Regular'" font-size="16">21: Chatter Demo</text>
	</g>
	<g id="puzzles">
		<text transform="matrix(1 0 0 1 232.6665 12.3335)" fill="#FFFFFF" font-family="'MyriadPro-Regular'" font-size="12">Puzzles &amp; Challenges</text>
		<text transform="matrix(1 0 0 1 225.6665 41.3335)" fill="#FFFFFF" font-family="'MyriadPro-Regular'" font-size="18">0: Introduction</text>
		<text transform="matrix(1 0 0 1 223.6665 270.3335)" fill="#FFFFFF" font-family="'MyriadPro-Regular'" font-size="16">1a: The 3x3 Puzzle</text>
		<g id="_x31_b-_x3E__1c">
			<text transform="matrix(1 0 0 1 223.6665 315.3262)" fill="#FFFFFF" font-family="'MyriadPro-Regular'" font-size="18">1b</text>
			
				<line fill="none" stroke="#FFFFFF" stroke-width="3" stroke-miterlimit="10" x1="249.667" y1="308.66" x2="283.333" y2="308.66"/>
			<polygon fill="#FFFFFF" points="295,308.66 282.952,315.616 282.952,301.704 			"/>
			<text transform="matrix(1 0 0 1 297.6665 315.3262)" fill="#FFFFFF" font-family="'MyriadPro-Regular'" font-size="18">1c</text>
		</g>
	</g>
	<g id="OpenGL_Tips">
		<text transform="matrix(1 0 0 1 431.6665 12.3335)" fill="#FFFFFF" font-family="'MyriadPro-Regular'" font-size="12">OpenGL Tips &amp; Tricks</text>
		<text transform="matrix(1 0 0 1 422.6665 41.3335)" fill="#FFFFFF" font-family="'MyriadPro-Regular'" font-size="18">0: Introduction</text>
		<text transform="matrix(1 0 0 1 418.6665 680.3335)" fill="#FFFFFF" font-family="'MyriadPro-Regular'" font-size="18">1ab: Sprites</text>
		<g id="_x2D__x3E_">
			<text transform="matrix(1 0 0 1 418.6665 725.3335)" fill="#FFFFFF" font-family="'MyriadPro-Regular'" font-size="18">1cd</text>
			
				<line fill="none" stroke="#FFFFFF" stroke-width="3" stroke-miterlimit="10" x1="451.715" y1="719.667" x2="485.382" y2="719.667"/>
			<polygon fill="#FFFFFF" points="497.048,719.667 485,726.623 485,712.711 			"/>
			<text transform="matrix(1 0 0 1 502.6665 725.3335)" fill="#FFFFFF" font-family="'MyriadPro-Regular'" font-size="18">1ef</text>
		</g>
		<text transform="matrix(1 0 0 1 418.6665 1174.334)" fill="#FFFFFF" font-family="'MyriadPro-Regular'" font-size="18">2: PNG Textures</text>
	</g>
	<g id="math_2_">
		<text transform="matrix(1 0 0 1 1241.666 12.3335)" fill="#FFFFFF" font-family="'MyriadPro-Regular'" font-size="12">Mathematics</text>
		<text transform="matrix(1 0 0 1 1212.666 41.3335)" fill="#FFFFFF" font-family="'MyriadPro-Regular'" font-size="18">1: Lines in 2D</text>
		<text transform="matrix(1 0 0 1 1212.666 226.3335)" fill="#FFFFFF" font-family="'MyriadPro-Regular'" font-size="18">2: Parabolas</text>
		<g id="_x2D__x3E__copy">
			<text transform="matrix(1 0 0 1 1213.666 273.3335)" fill="#FFFFFF" font-family="'MyriadPro-Regular'" font-size="18">3</text>
			
				<line fill="none" stroke="#FFFFFF" stroke-width="3" stroke-miterlimit="10" x1="1231.715" y1="267.667" x2="1265.382" y2="267.667"/>
			<polygon fill="#FFFFFF" points="1277.049,267.667 1265,274.623 1265,260.711 			"/>
			<text transform="matrix(1 0 0 1 1282.666 273.3335)" fill="#FFFFFF" font-family="'MyriadPro-Regular'" font-size="18">5</text>
		</g>
		<text transform="matrix(1 0 0 1 1212.666 316.3335)" fill="#FFFFFF" font-family="'MyriadPro-Regular'" font-size="18">6: Unit Circle</text>
		<text transform="matrix(1 0 0 1 1212.666 496.3335)" fill="#FFFFFF" font-family="'MyriadPro-Regular'" font-size="18">7: Dot Product</text>
		<g id="_x2D__x3E__copy_2">
			<text transform="matrix(1 0 0 1 1213.666 542.3335)" fill="#FFFFFF" font-family="'MyriadPro-Regular'" font-size="18">8</text>
			
				<line fill="none" stroke="#FFFFFF" stroke-width="3" stroke-miterlimit="10" x1="1231.715" y1="536.667" x2="1265.382" y2="536.667"/>
			<polygon fill="#FFFFFF" points="1277.049,536.667 1265,543.623 1265,529.711 			"/>
			<text transform="matrix(1 0 0 1 1282.666 542.3335)" fill="#FFFFFF" font-family="'MyriadPro-Regular'" font-size="18">9</text>
		</g>
		<text transform="matrix(1 0 0 1 1212.666 939.334)"><tspan x="0" y="0" fill="#FFFFFF" font-family="'MyriadPro-Regular'" font-size="16">10: Smooth </tspan><tspan x="0" y="16" fill="#FFFFFF" font-family="'MyriadPro-Regular'" font-size="16">       Interpolation</tspan></text>
	</g>
	<g id="trueSpace_2_">
		<text transform="matrix(1 0 0 1 1426.666 12.3335)" fill="#FFFFFF" font-family="'MyriadPro-Regular'" font-size="12">Caligari trueSpace</text>
		<text transform="matrix(1 0 0 1 1410.666 41.3335)" fill="#FFFFFF" font-family="'MyriadPro-Regular'" font-size="18">1: Introduction</text>
		<g id="_x2D__x3E__copy_3">
			<text transform="matrix(1 0 0 1 1412.666 86.3335)" fill="#FFFFFF" font-family="'MyriadPro-Regular'" font-size="18">2</text>
			
				<line fill="none" stroke="#FFFFFF" stroke-width="3" stroke-miterlimit="10" x1="1430.715" y1="80.667" x2="1464.382" y2="80.667"/>
			<polygon fill="#FFFFFF" points="1476.049,80.667 1464,87.623 1464,73.711 			"/>
			<text transform="matrix(1 0 0 1 1481.666 86.3335)" fill="#FFFFFF" font-family="'MyriadPro-Regular'" font-size="18">6</text>
		</g>
		<text transform="matrix(1 0 0 1 1410.666 398.3335)"><tspan x="0" y="0" fill="#FFFFFF" font-family="'MyriadPro-Regular'" font-size="16">7: Texturing</tspan><tspan x="0" y="16" fill="#FFFFFF" font-family="'MyriadPro-Regular'" font-size="16">    Objects</tspan></text>
	</g>
</g>
<g id="Layer_1" display="none">
	<image display="inline" overflow="visible" opacity="0.7" width="2355" height="1570" xlink:href="viewingOrder.png" >
	</image>
</g>
</svg>
