<?xml version="1.0" encoding="utf-8"?>
<!-- Generator: Adobe Illustrator 16.0.3, SVG Export Plug-In . SVG Version: 6.00 Build 0)  -->
<!DOCTYPE svg PUBLIC "-//W3C//DTD SVG 1.1//EN" "http://www.w3.org/Graphics/SVG/1.1/DTD/svg11.dtd">
<svg version="1.1" id="Layer_1" xmlns="http://www.w3.org/2000/svg" xmlns:xlink="http://www.w3.org/1999/xlink" x="0px" y="0px"
	 width="50px" height="50px" viewBox="-268.5 243.5 50 50" enable-background="new -268.5 243.5 50 50" xml:space="preserve">
<rect x="-268.5" y="243.5" fill="#C7B299" fill-opacity="0.5" width="50" height="50"/>
<g>
	<path fill="#913B1F" d="M-235.136,284.682v4.182h-16.728v-4.182h-2.788v4.182c0,1.533,1.254,2.788,2.788,2.788h16.728
		c1.533,0,2.788-1.255,2.788-2.788v-4.182H-235.136z M-236.53,279.106l-1.966-1.966l-3.61,3.597v-11.389h-2.788v11.389l-3.61-3.597
		l-1.966,1.966l6.97,6.97L-236.53,279.106z"/>
</g>
<g id="Layer_2">
	<path fill="#913B1F" d="M-223.936,267.852l-2.226-15.643c-0.572-4.023-4.024-7.004-8.089-7.004h-18.501
		c-4.064,0-7.516,2.98-8.088,7.004l-2.226,15.643c-0.449,3.146,1.981,5.943,5.146,5.943l0,0c1.389,0,2.695-0.551,3.677-1.531
		l4.614-4.596h12.254l4.595,4.596c0.98,0.98,2.308,1.531,3.676,1.531l0,0C-225.918,273.795-223.487,270.998-223.936,267.852z
		 M-228.224,269.324c-0.163,0.184-0.431,0.387-0.857,0.387c-0.308,0-0.595-0.123-0.798-0.326l-5.8-5.801h-15.644l-5.799,5.801
		c-0.205,0.203-0.491,0.326-0.797,0.326c-0.429,0-0.694-0.203-0.857-0.387c-0.164-0.186-0.327-0.471-0.266-0.9l2.226-15.643
		c0.307-1.98,2.042-3.492,4.064-3.492h18.501c2.021,0,3.759,1.512,4.044,3.512l2.226,15.645
		C-227.918,268.854-228.082,269.139-228.224,269.324z"/>
	<polygon fill="#913B1F" points="-249.627,251.332 -251.669,251.332 -251.669,255.416 -255.753,255.416 -255.753,257.457 
		-251.669,257.457 -251.669,261.543 -249.627,261.543 -249.627,257.457 -245.542,257.457 -245.542,255.416 -249.627,255.416 	"/>
	<circle fill="#913B1F" cx="-233.289" cy="259.5" r="2.043"/>
	<circle fill="#913B1F" cx="-237.373" cy="253.374" r="2.042"/>
</g>
</svg>
