<svg version="1.1" id="Layer_1" xmlns="http://www.w3.org/2000/svg" xmlns:xlink="http://www.w3.org/1999/xlink" x="0px" y="0px"
	 width="24px" height="24px" viewBox="0 0 24 24" enable-background="new 0 0 24 24" xml:space="preserve">
<rect x="2.119" y="2.205" fill="#FFFFFF" width="19.753" height="20.355"/>
<path fill="#0A66C2" d="M24,1.765v20.471C24,23.21,23.21,24,22.235,24H1.765C0.79,24,0,23.21,0,22.235V1.765C0,0.79,0.79,0,1.765,0
	h20.471C23.21,0,24,0.79,24,1.765z M7.059,9.176H3.529v11.294h3.529V9.176z M7.376,5.294C7.384,4.171,6.48,3.255,5.358,3.247
	c0,0,0,0,0,0H5.294c-1.13,0-2.046,0.917-2.046,2.048c0,1.13,0.916,2.046,2.046,2.046l0,0c1.123,0.027,2.055-0.86,2.083-1.982
	c0,0,0-0.001,0-0.001V5.294z M20.471,13.609c0-3.396-2.16-4.715-4.307-4.715c-1.43-0.072-2.789,0.622-3.571,1.821h-0.099V9.176
	H9.176v11.294h3.53v-6.008c-0.106-1.279,0.839-2.407,2.118-2.526h0.133c1.123,0,1.956,0.706,1.956,2.485v6.049h3.529L20.471,13.609z
	"/>
</svg>
