<svg version="1.1" id="Layer_1" xmlns="http://www.w3.org/2000/svg" xmlns:xlink="http://www.w3.org/1999/xlink" x="0px" y="0px"
	 width="24px" height="24px" viewBox="5.5 5.5 24 24" enable-background="new 5.5 5.5 24 24" xml:space="preserve">
<path fill="#FF0000" d="M29.005,11.728c-0.276-1.028-1.087-1.839-2.115-2.115c-1.878-0.514-9.39-0.514-9.39-0.514
	s-7.513,0-9.391,0.494c-1.008,0.276-1.838,1.107-2.115,2.135C5.5,13.605,5.5,17.5,5.5,17.5s0,3.914,0.494,5.772
	c0.277,1.028,1.087,1.839,2.115,2.115c1.898,0.515,9.391,0.515,9.391,0.515s7.512,0,9.39-0.495c1.028-0.275,1.839-1.087,2.115-2.115
	C29.5,21.414,29.5,17.52,29.5,17.52S29.52,13.605,29.005,11.728L29.005,11.728z"/>
<path fill="#FFFFFF" d="M15.107,13.902v7.196l6.247-3.598L15.107,13.902z"/>
</svg>
